<?xml version="1.0" encoding="UTF-8" standalone="no"?>
<svg
   xmlns:dc="http://purl.org/dc/elements/1.1/"
   xmlns:cc="http://creativecommons.org/ns#"
   xmlns:rdf="http://www.w3.org/1999/02/22-rdf-syntax-ns#"
   xmlns:svg="http://www.w3.org/2000/svg"
   xmlns="http://www.w3.org/2000/svg"
   viewBox="0 0 20.719999 36.589333"

   xml:space="preserve"
   id="svg2"
   version="1.1"><defs
     id="defs6"><clipPath
       id="clipPath18"
       clipPathUnits="userSpaceOnUse"><path
         id="path16"
         d="M 0,27.442 H 15.54 V 0 H 0 Z" /></clipPath></defs><g
     transform="matrix(1.3333333,0,0,-1.3333333,0,36.589333)"
     id="g10"><g
       id="g12"><g
         clip-path="url(#clipPath18)"
         id="g14"><path
           id="path20"
           style="fill:#000000;fill-opacity:1;fill-rule:nonzero;stroke:none"
           d="M 14.044,6.342 H 1.497 V 24.069 H 14.044 Z M 7.771,1.973 c -0.703,0 -1.275,0.572 -1.275,1.276 0,0.704 0.572,1.274 1.275,1.274 0.701,0 1.273,-0.57 1.273,-1.274 0,-0.704 -0.572,-1.276 -1.273,-1.276 m -2.85,24.255 h 5.7 c 0.144,0 0.261,-0.215 0.261,-0.481 0,-0.266 -0.117,-0.482 -0.261,-0.482 h -5.7 c -0.145,0 -0.26,0.216 -0.26,0.482 0,0.266 0.115,0.481 0.26,0.481 m 8.622,1.214 H 1.997 C 0.892,27.442 0,26.546 0,25.443 V 1.997 C 0,0.895 0.892,0 1.997,0 h 11.546 c 1.103,0 1.997,0.895 1.997,1.997 v 23.446 c 0,1.103 -0.894,1.999 -1.997,1.999" /></g></g></g></svg>