<svg width="132" height="40" viewBox="0 0 132 40" fill="none" xmlns="http://www.w3.org/2000/svg">
<path d="M10.92 8.83483V6.09083C10.92 5.64283 10.7893 5.25083 10.528 4.91483C10.2667 4.57883 9.83733 4.41083 9.24 4.41083H5.992C5.39467 4.41083 4.96533 4.57883 4.704 4.91483C4.44267 5.25083 4.312 5.64283 4.312 6.09083V33.6428C4.312 34.0908 4.44267 34.4828 4.704 34.8188C4.96533 35.1548 5.39467 35.3228 5.992 35.3228H9.24C9.83733 35.3228 10.2667 35.1548 10.528 34.8188C10.7893 34.4828 10.92 34.0908 10.92 33.6428V17.0668H7.616V12.7548H15.232V33.3068C15.232 34.1282 15.12 34.9308 14.896 35.7148C14.672 36.4615 14.3173 37.1335 13.832 37.7308C13.384 38.2908 12.768 38.7575 11.984 39.1308C11.2373 39.4668 10.3227 39.6348 9.24 39.6348H5.992C4.90933 39.6348 3.976 39.4855 3.192 39.1868C2.44533 38.8508 1.82933 38.4215 1.344 37.8988C0.896 37.3388 0.56 36.7042 0.336 35.9948C0.112 35.2482 0 34.4642 0 33.6428V6.09083C0 5.26949 0.112 4.50416 0.336 3.79483C0.56 3.04816 0.896 2.41349 1.344 1.89083C1.82933 1.33083 2.44533 0.901493 3.192 0.602826C3.976 0.266826 4.90933 0.0988255 5.992 0.0988255H9.24C10.3227 0.0988255 11.2373 0.266826 11.984 0.602826C12.768 0.901493 13.384 1.33083 13.832 1.89083C14.3173 2.41349 14.672 3.04816 14.896 3.79483C15.12 4.50416 15.232 5.26949 15.232 6.09083V8.83483H10.92ZM34.8644 31.8508H27.1924L26.2964 39.2988H21.9844L26.4084 0.434828H35.5924L40.0724 39.2988H35.7044L34.8644 31.8508ZM34.4164 27.9308L31.7284 4.74683H30.2724L27.6404 27.9308H34.4164ZM50.9604 34.9868H59.5844V39.2988H46.6484V0.434828H50.9604V34.9868ZM65.5703 39.2988V0.434828H69.8823V39.2988H65.5703ZM82.0229 34.9868H90.6469V39.2988H77.7109V0.434828H82.0229V34.9868ZM109.569 0.434828V4.74683H100.945V12.7548H107.385V17.1228H100.945V34.9868H109.569V39.2988H96.6328V0.434828H109.569ZM125.234 0.0988255C126.316 0.0988255 127.231 0.266826 127.978 0.602826C128.762 0.901493 129.378 1.33083 129.826 1.89083C130.311 2.41349 130.666 3.04816 130.89 3.79483C131.114 4.50416 131.226 5.26949 131.226 6.09083V33.6428C131.226 34.4642 131.114 35.2482 130.89 35.9948C130.666 36.7042 130.311 37.3388 129.826 37.8988C129.378 38.4215 128.762 38.8508 127.978 39.1868C127.231 39.4855 126.316 39.6348 125.234 39.6348H121.93C120.847 39.6348 119.914 39.4855 119.13 39.1868C118.383 38.8508 117.767 38.4215 117.282 37.8988C116.834 37.3388 116.498 36.7042 116.274 35.9948C116.05 35.2482 115.938 34.4642 115.938 33.6428V6.09083C115.938 5.26949 116.05 4.50416 116.274 3.79483C116.498 3.04816 116.834 2.41349 117.282 1.89083C117.767 1.33083 118.383 0.901493 119.13 0.602826C119.914 0.266826 120.847 0.0988255 121.93 0.0988255H125.234ZM125.234 35.3228C125.831 35.3228 126.26 35.1548 126.522 34.8188C126.783 34.4828 126.914 34.0908 126.914 33.6428V6.09083C126.914 5.64283 126.783 5.25083 126.522 4.91483C126.26 4.57883 125.831 4.41083 125.234 4.41083H121.93C121.295 4.41083 120.847 4.57883 120.586 4.91483C120.362 5.25083 120.25 5.64283 120.25 6.09083V33.6428C120.25 34.0908 120.362 34.4828 120.586 34.8188C120.847 35.1548 121.295 35.3228 121.93 35.3228H125.234Z" fill="#88A9D3"/>
</svg>
