<svg width="132" height="21" viewBox="0 0 132 21" fill="none" xmlns="http://www.w3.org/2000/svg">
<path d="M0 20.2988V0.866828H2.156V20.2988H0ZM7.63831 20.2988V0.866828H9.79431V4.14283L12.9863 7.47483V0.866828H15.1423V20.2988H12.9863V10.2748L9.79431 7.05483V20.2988H7.63831ZM28.9664 0.866828V3.02283H25.4104V20.2988H23.2544V3.02283H19.6984V0.866828H28.9664ZM39.9903 0.866828V3.02283H35.6783V7.02683H38.8983V9.21083H35.6783V18.1428H39.9903V20.2988H33.5223V0.866828H39.9903ZM47.2262 18.1428H51.5382V20.2988H45.0702V0.866828H47.2262V18.1428ZM58.2271 18.1428H62.5391V20.2988H56.0711V0.866828H58.2271V18.1428ZM67.072 20.2988V0.866828H69.228V20.2988H67.072ZM79.9509 5.06683V3.69483C79.9509 3.47083 79.8856 3.27483 79.7549 3.10683C79.6243 2.93883 79.4096 2.85483 79.1109 2.85483H77.4869C77.1883 2.85483 76.9736 2.93883 76.8429 3.10683C76.7123 3.27483 76.6469 3.47083 76.6469 3.69483V17.4708C76.6469 17.6948 76.7123 17.8908 76.8429 18.0588C76.9736 18.2268 77.1883 18.3108 77.4869 18.3108H79.1109C79.4096 18.3108 79.6243 18.2268 79.7549 18.0588C79.8856 17.8908 79.9509 17.6948 79.9509 17.4708V9.18283H78.2989V7.02683H82.1069V17.3028C82.1069 17.7135 82.0509 18.1148 81.9389 18.5068C81.8269 18.8802 81.6496 19.2162 81.4069 19.5148C81.1829 19.7948 80.8749 20.0282 80.4829 20.2148C80.1096 20.3828 79.6523 20.4668 79.1109 20.4668H77.4869C76.9456 20.4668 76.4789 20.3922 76.0869 20.2428C75.7136 20.0748 75.4056 19.8602 75.1629 19.5988C74.9389 19.3188 74.7709 19.0015 74.6589 18.6468C74.5469 18.2735 74.4909 17.8815 74.4909 17.4708V3.69483C74.4909 3.28416 74.5469 2.90149 74.6589 2.54683C74.7709 2.17349 74.9389 1.85616 75.1629 1.59483C75.4056 1.31483 75.7136 1.10016 76.0869 0.950827C76.4789 0.782827 76.9456 0.698827 77.4869 0.698827H79.1109C79.6523 0.698827 80.1096 0.782827 80.4829 0.950827C80.8749 1.10016 81.1829 1.31483 81.4069 1.59483C81.6496 1.85616 81.8269 2.17349 81.9389 2.54683C82.0509 2.90149 82.1069 3.28416 82.1069 3.69483V5.06683H79.9509ZM93.9013 0.866828V3.02283H89.5893V7.02683H92.8093V9.21083H89.5893V18.1428H93.9013V20.2988H87.4333V0.866828H93.9013ZM99.0091 20.2988V0.866828H101.165V4.14283L104.357 7.47483V0.866828H106.513V20.2988H104.357V10.2748L101.165 7.05483V20.2988H99.0091ZM117.247 11.9828H119.403V17.4708C119.403 17.8815 119.347 18.2735 119.235 18.6468C119.123 19.0015 118.945 19.3188 118.703 19.5988C118.479 19.8602 118.171 20.0748 117.779 20.2428C117.405 20.3922 116.948 20.4668 116.407 20.4668H114.783C114.241 20.4668 113.775 20.3922 113.383 20.2428C113.009 20.0748 112.701 19.8602 112.459 19.5988C112.235 19.3188 112.067 19.0015 111.955 18.6468C111.843 18.2735 111.787 17.8815 111.787 17.4708V3.69483C111.787 3.28416 111.843 2.90149 111.955 2.54683C112.067 2.17349 112.235 1.85616 112.459 1.59483C112.701 1.31483 113.009 1.10016 113.383 0.950827C113.775 0.782827 114.241 0.698827 114.783 0.698827H116.407C116.948 0.698827 117.405 0.782827 117.779 0.950827C118.171 1.10016 118.479 1.31483 118.703 1.59483C118.945 1.85616 119.123 2.17349 119.235 2.54683C119.347 2.90149 119.403 3.28416 119.403 3.69483V7.44683H117.247V3.69483C117.247 3.47083 117.181 3.27483 117.051 3.10683C116.92 2.93883 116.705 2.85483 116.407 2.85483H114.783C114.484 2.85483 114.269 2.93883 114.139 3.10683C114.008 3.27483 113.943 3.47083 113.943 3.69483V17.4708C113.943 17.6948 114.008 17.8908 114.139 18.0588C114.269 18.2268 114.484 18.3108 114.783 18.3108H116.407C116.705 18.3108 116.92 18.2268 117.051 18.0588C117.181 17.8908 117.247 17.6948 117.247 17.4708V11.9828ZM131.115 0.866828V3.02283H126.803V7.02683H130.023V9.21083H126.803V18.1428H131.115V20.2988H124.647V0.866828H131.115Z" fill="#88A9D3"/>
</svg>
