<svg width="113" height="36" viewBox="0 0 113 36" fill="none" xmlns="http://www.w3.org/2000/svg">
<path d="M1 4.62329V10.0059V27.9313C1 29.2313 1.53748 30.4735 2.4851 31.3636C3.35821 32.1837 4.51102 32.6402 5.70887 32.6402H97.7906C98.9554 32.6402 100.095 32.9776 101.072 33.6116C102.049 34.2456 103.189 34.583 104.354 34.583H107.747C108.569 34.583 109.373 34.345 110.062 33.8977C111.271 33.1134 112 31.7707 112 30.3301V7.37729C112 5.97105 111.351 4.64348 110.242 3.77949C109.441 3.1559 108.455 2.81729 107.44 2.81729H66.0432H15.4022C14.0628 2.81729 12.752 2.42927 11.6285 1.70015C10.5049 0.971028 9.19414 0.583008 7.85473 0.583008H5.04029C4.25966 0.583008 3.49575 0.809149 2.84092 1.23409C1.69286 1.97911 1 3.25468 1 4.62329Z" fill="#316198" stroke="#294F93"/>
</svg>
