<svg width="901" height="1246" viewBox="0 0 901 1246" fill="none" xmlns="http://www.w3.org/2000/svg">
<path d="M1 71.6455V361.664V1187.76C1 1189.61 1.51404 1191.42 2.48486 1193L21.1067 1223.24C22.927 1226.2 26.1502 1228 29.6219 1228H822.085C824.897 1228 827.58 1229.18 829.475 1231.26L839.025 1241.74C840.92 1243.82 843.603 1245 846.415 1245H876.753C879.169 1245 881.503 1244.13 883.324 1242.54L896.571 1230.99C898.75 1229.09 900 1226.34 900 1223.45V64.6599C900 61.7058 898.694 58.9029 896.432 57.0028L865.289 30.843C863.488 29.3296 861.21 28.5 858.857 28.5H530H100.498C98.2332 28.5 96.0356 27.7313 94.2648 26.3197L65.2352 3.18027C63.4644 1.76869 61.2668 1 59.0021 1H23.4804C20.9243 1 18.4653 1.97879 16.6084 3.73532L4.128 15.5411C2.13128 17.4299 1 20.0572 1 22.8058V71.6455Z" fill="#346FAA" fill-opacity="0.26" stroke="#88A9D3"/>
</svg>
