<svg xmlns="http://www.w3.org/2000/svg" viewBox="0 0 17 104.04"><defs><style>.cls-1{fill:#346faa;fill-opacity:0.26;}.cls-2{fill:none;stroke:#88a9d3;}</style></defs><title>Ресурс 2</title><g id="Слой_2" data-name="Слой 2"><g id="Слой_1-2" data-name="Слой 1"><path class="cls-1" d="M.5.21,8.71,18.14a4.49,4.49,0,0,0,.75,1.17l5.84,6.84a5,5,0,0,1,1.2,3.25V65.25a5,5,0,0,1-1.41,3.48L9.86,74.12a5,5,0,0,0-1.21,2.07L.5,103.9"/><path class="cls-2" d="M.5.21,8.71,18.14a4.49,4.49,0,0,0,.75,1.17l5.84,6.84a5,5,0,0,1,1.2,3.25V65.25a5,5,0,0,1-1.41,3.48L9.86,74.12a5,5,0,0,0-1.21,2.07L.5,103.9M.5.21V103.9"/></g></g></svg>