<svg width="246" height="354" viewBox="0 0 246 354" fill="none" xmlns="http://www.w3.org/2000/svg">
<path d="M1 10.5532V104.06V335.727C1 336.954 1.45123 338.138 2.26778 339.054L7.85994 345.327C8.80864 346.391 10.1665 347 11.5922 347H44.5714H209.383C210.434 347 211.459 347.331 212.311 347.947L218.689 352.553C219.541 353.169 220.566 353.5 221.617 353.5H236.037C237.299 353.5 238.514 353.023 239.439 352.164L243.402 348.484C244.421 347.538 245 346.21 245 344.82V18.8607C245 17.6782 244.581 16.5341 243.817 15.6313L239.705 10.7709C238.755 9.64797 237.359 9.0003 235.888 9.00029L161.219 9H59.0952H36.7539C35.6185 9 34.517 8.6136 33.6304 7.90434L26.3696 2.09566C25.483 1.3864 24.3815 1 23.2461 1H9.13021C7.48369 1 5.94272 1.81061 5.00995 3.16743L1.87974 7.72063C1.30675 8.55411 1 9.54177 1 10.5532Z" stroke="#88A9D3"/>
</svg>
