<svg width="224" height="166" viewBox="0 0 224 166" fill="none" xmlns="http://www.w3.org/2000/svg">
<path d="M223 10.3038V47.1238V157.619C223 159.378 222.076 161.007 220.567 161.91L216.587 164.291C215.811 164.755 214.924 165 214.02 165H183.357H148.5H74.5H23.4643H12.326C11.6289 165 10.9396 164.854 10.3022 164.572L3.97626 161.772C2.16689 160.971 1 159.179 1 157.2V7.65459C1 5.93749 1.8811 4.3405 3.33368 3.42484L5.95824 1.7704C6.75652 1.26718 7.68089 1.00014 8.62453 1.00014L77.2274 1H170.143H183.357L213.421 1.00014C214.693 1.00014 215.918 1.48529 216.845 2.35673L221.424 6.66038C222.43 7.60539 223 8.92392 223 10.3038Z" fill="#515D85" stroke="#88A9D3"/>
</svg>
