<svg width="224" height="73" viewBox="0 0 224 73" fill="none" xmlns="http://www.w3.org/2000/svg">
<path d="M223 65.5447V52.0317V6.83783C223 4.55919 221.459 2.56878 219.254 1.99751L216.018 1.15968C215.609 1.05366 215.188 1 214.765 1H183.357H153.5C150.739 1 148.5 3.23858 148.5 6V32.9289C148.5 34.255 147.973 35.5268 147.036 36.4645L143.464 40.0355C142.527 40.9732 141.255 41.5 139.929 41.5H121.071C119.745 41.5 118.473 40.9732 117.536 40.0355L115.464 37.9645C114.527 37.0268 113.255 36.5 111.929 36.5H79.5C76.7386 36.5 74.5 34.2614 74.5 31.5V6C74.5 3.23858 72.2614 1 69.5 1H23.4643H11.7436C11.4278 1 11.1127 1.02991 10.8026 1.08935L5.05901 2.18996C2.70328 2.64137 1 4.70203 1 7.10061V66.495C1 68.7495 2.5087 70.7251 4.68361 71.3186L6.53375 71.8235C6.96275 71.9406 7.40546 71.9999 7.85014 71.9999L77.2274 72H170.143H183.357L214.424 71.9999C215.07 71.9999 215.71 71.8747 216.308 71.6312L219.884 70.176C221.768 69.4095 223 67.5784 223 65.5447Z" fill="#515D85" stroke="#88A9D3"/>
</svg>
