<svg width="713" height="309" viewBox="0 0 713 309" fill="none" xmlns="http://www.w3.org/2000/svg">
<path d="M1 22.9246V91.3486V279.564C1 281.641 1.64696 283.667 2.85103 285.36L16.2284 304.167C18.1043 306.805 21.1407 308.371 24.3773 308.371H632.414H654H684.721C685.898 308.371 687.065 308.164 688.17 307.758L705.45 301.407C709.385 299.961 712 296.214 712 292.021V48.4788C712 46.0902 711.145 43.7805 709.59 41.9677L695.816 25.9117C693.916 23.6972 691.144 22.4229 688.226 22.4229H417.628H84.1639C81.562 22.4229 79.0625 21.4087 77.1962 19.5958L60.9629 3.82705C59.0966 2.01412 56.5971 1 53.9952 1H23.2758C20.6739 1 18.1745 2.01412 16.3081 3.82705L4.03231 15.7516C2.09382 17.6346 1 20.2221 1 22.9246Z" fill="#346FAA" fill-opacity="0.26" stroke="#88A9D3"/>
</svg>
