<svg width="37" height="11" viewBox="0 0 37 11" fill="none" xmlns="http://www.w3.org/2000/svg">
<path d="M1.91495 0.672C2.14695 0.672 2.34295 0.708 2.50295 0.779999C2.67095 0.843999 2.80295 0.935999 2.89895 1.056C3.00295 1.168 3.07895 1.304 3.12695 1.464C3.17495 1.616 3.19895 1.78 3.19895 1.956V2.544C3.19895 2.92 3.13095 3.204 2.99495 3.396C2.86695 3.58 2.69495 3.708 2.47895 3.78C2.69495 3.86 2.86695 3.996 2.99495 4.188C3.13095 4.372 3.19895 4.652 3.19895 5.028V7.716C3.19895 7.948 3.16295 8.148 3.09095 8.316C3.02695 8.476 2.93495 8.608 2.81495 8.712C2.70295 8.808 2.56695 8.88 2.40695 8.928C2.25495 8.976 2.09095 9 1.91495 9H0.126953V0.672H1.91495ZM2.27495 4.908C2.27495 4.7 2.21495 4.54 2.09495 4.428C1.98295 4.308 1.84295 4.248 1.67495 4.248H1.05095V8.076H1.91495C2.01895 8.076 2.10295 8.052 2.16695 8.004C2.23895 7.948 2.27495 7.852 2.27495 7.716V4.908ZM2.27495 1.956C2.27495 1.86 2.24695 1.776 2.19095 1.704C2.14295 1.632 2.05095 1.596 1.91495 1.596H1.05095V3.324H1.67495C1.84295 3.324 1.98295 3.268 2.09495 3.156C2.21495 3.036 2.27495 2.872 2.27495 2.664V1.956ZM7.05958 9V3.708L5.69158 5.088V9H4.76758V0.672H5.69158V3.972L7.05958 2.544V0.672H7.98358V9H7.05958ZM13.6721 8.076V10.104H13.0361L12.8561 9H9.98814L9.90414 10.104H9.16014V8.076H9.70014C9.86814 7.964 9.95614 7.78 9.96414 7.524L10.2401 0.672H13.0361V8.076H13.6721ZM12.1121 8.076V1.596H11.1281L10.8761 7.56C10.8601 7.768 10.7961 7.94 10.6841 8.076H12.1121ZM14.8457 0.672H17.6177V1.596H15.7697V3.312H17.1497V4.248H15.7697V8.076H17.6177V9H14.8457V0.672ZM20.8455 0.599999C21.0775 0.599999 21.2735 0.635999 21.4335 0.707999C21.6015 0.772 21.7335 0.864 21.8295 0.983999C21.9335 1.096 22.0095 1.232 22.0575 1.392C22.1055 1.544 22.1295 1.708 22.1295 1.884V7.788C22.1295 7.964 22.1055 8.132 22.0575 8.292C22.0095 8.444 21.9335 8.58 21.8295 8.7C21.7335 8.812 21.6015 8.904 21.4335 8.976C21.2735 9.04 21.0775 9.072 20.8455 9.072H20.1375C19.9055 9.072 19.7055 9.04 19.5375 8.976C19.3775 8.904 19.2455 8.812 19.1415 8.7C19.0455 8.58 18.9735 8.444 18.9255 8.292C18.8775 8.132 18.8535 7.964 18.8535 7.788V1.884C18.8535 1.708 18.8775 1.544 18.9255 1.392C18.9735 1.232 19.0455 1.096 19.1415 0.983999C19.2455 0.864 19.3775 0.772 19.5375 0.707999C19.7055 0.635999 19.9055 0.599999 20.1375 0.599999H20.8455ZM20.8455 8.148C20.9735 8.148 21.0655 8.112 21.1215 8.04C21.1775 7.968 21.2055 7.884 21.2055 7.788V1.884C21.2055 1.788 21.1775 1.704 21.1215 1.632C21.0655 1.56 20.9735 1.524 20.8455 1.524H20.1375C20.0015 1.524 19.9055 1.56 19.8495 1.632C19.8015 1.704 19.7775 1.788 19.7775 1.884V7.788C19.7775 7.884 19.8015 7.968 19.8495 8.04C19.9055 8.112 20.0015 8.148 20.1375 8.148H20.8455ZM23.7168 9V7.836H24.8808V9H23.7168ZM23.7168 2.7H24.8808V3.864H23.7168V2.7ZM30.4708 2.268V1.884C30.4708 1.788 30.4428 1.704 30.3868 1.632C30.3388 1.56 30.2468 1.524 30.1108 1.524H29.5828C29.4468 1.524 29.3508 1.56 29.2948 1.632C29.2468 1.704 29.2228 1.788 29.2228 1.884V3.324H30.1948C30.4268 3.324 30.6228 3.36 30.7828 3.432C30.9508 3.496 31.0828 3.588 31.1788 3.708C31.2828 3.82 31.3588 3.956 31.4068 4.116C31.4548 4.268 31.4788 4.432 31.4788 4.608V7.788C31.4788 7.964 31.4548 8.132 31.4068 8.292C31.3588 8.444 31.2828 8.58 31.1788 8.7C31.0828 8.812 30.9508 8.904 30.7828 8.976C30.6228 9.04 30.4268 9.072 30.1948 9.072H29.5828C29.3508 9.072 29.1508 9.04 28.9828 8.976C28.8228 8.904 28.6908 8.812 28.5868 8.7C28.4908 8.58 28.4188 8.444 28.3708 8.292C28.3228 8.132 28.2988 7.964 28.2988 7.788V1.884C28.2988 1.708 28.3228 1.544 28.3708 1.392C28.4188 1.232 28.4908 1.096 28.5868 0.983999C28.6908 0.864 28.8228 0.772 28.9828 0.707999C29.1508 0.635999 29.3508 0.599999 29.5828 0.599999H30.1108C30.3428 0.599999 30.5388 0.635999 30.6988 0.707999C30.8668 0.772 30.9988 0.864 31.0948 0.983999C31.1988 1.096 31.2748 1.232 31.3228 1.392C31.3708 1.544 31.3948 1.708 31.3948 1.884V2.268H30.4708ZM29.2228 4.248V7.788C29.2228 7.892 29.2468 7.98 29.2948 8.052C29.3508 8.116 29.4468 8.148 29.5828 8.148H30.1948C30.3308 8.148 30.4228 8.116 30.4708 8.052C30.5268 7.98 30.5548 7.892 30.5548 7.788V4.608C30.5548 4.512 30.5268 4.428 30.4708 4.356C30.4228 4.284 30.3308 4.248 30.1948 4.248H29.2228ZM35.218 3.336C35.522 3.376 35.774 3.496 35.974 3.696C36.182 3.888 36.286 4.192 36.286 4.608V7.716C36.286 7.892 36.262 8.06 36.214 8.22C36.166 8.372 36.09 8.508 35.986 8.628C35.89 8.74 35.758 8.832 35.59 8.904C35.43 8.968 35.234 9 35.002 9H34.282C34.05 9 33.85 8.968 33.682 8.904C33.522 8.832 33.39 8.74 33.286 8.628C33.19 8.508 33.118 8.372 33.07 8.22C33.022 8.06 32.998 7.892 32.998 7.716V5.436H33.922V7.716C33.922 7.812 33.946 7.896 33.994 7.968C34.05 8.04 34.146 8.076 34.282 8.076H35.002C35.13 8.076 35.222 8.04 35.278 7.968C35.334 7.896 35.362 7.812 35.362 7.716V4.608C35.362 4.48 35.326 4.388 35.254 4.332C35.182 4.276 35.098 4.248 35.002 4.248H34.198V3.324L35.362 1.752V1.596H32.998V0.672H36.286V2.064L35.218 3.336Z" fill="#A1CAFE"/>
</svg>
