<svg width="38" height="10" viewBox="0 0 38 10" fill="none" xmlns="http://www.w3.org/2000/svg">
<path d="M2.96333 0.672H3.88733V9H2.96333V4.248H1.53533V9H0.611328V0.672H1.53533V3.324H2.96333V0.672ZM8.1057 7.404H6.4617L6.2697 9H5.3457L6.2937 0.672H8.2617L9.2217 9H8.2857L8.1057 7.404ZM8.0097 6.564L7.4337 1.596H7.1217L6.5577 6.564H8.0097ZM13.7989 0.672V9H12.8749V1.596H11.5549V9H10.6309V0.672H13.7989ZM17.7744 9V3.708L16.4064 5.088V9H15.4824V0.672H16.4064V3.972L17.7744 2.544V0.672H18.6984V9H17.7744ZM22.6388 5.436H23.5628V7.788C23.5628 7.964 23.5388 8.132 23.4908 8.292C23.4428 8.444 23.3668 8.58 23.2628 8.7C23.1668 8.812 23.0348 8.904 22.8668 8.976C22.7068 9.04 22.5108 9.072 22.2788 9.072H21.5828C21.3508 9.072 21.1508 9.04 20.9828 8.976C20.8228 8.904 20.6908 8.812 20.5868 8.7C20.4908 8.58 20.4188 8.444 20.3708 8.292C20.3228 8.132 20.2988 7.964 20.2988 7.788V1.884C20.2988 1.708 20.3228 1.544 20.3708 1.392C20.4188 1.232 20.4908 1.096 20.5868 0.983999C20.6908 0.864 20.8228 0.772 20.9828 0.707999C21.1508 0.635999 21.3508 0.599999 21.5828 0.599999H22.2788C22.5108 0.599999 22.7068 0.635999 22.8668 0.707999C23.0348 0.772 23.1668 0.864 23.2628 0.983999C23.3668 1.096 23.4428 1.232 23.4908 1.392C23.5388 1.544 23.5628 1.708 23.5628 1.884V3.492H22.6388V1.884C22.6388 1.788 22.6108 1.704 22.5548 1.632C22.4988 1.56 22.4068 1.524 22.2788 1.524H21.5828C21.4548 1.524 21.3628 1.56 21.3068 1.632C21.2508 1.704 21.2228 1.788 21.2228 1.884V7.788C21.2228 7.884 21.2508 7.968 21.3068 8.04C21.3628 8.112 21.4548 8.148 21.5828 8.148H22.2788C22.4068 8.148 22.4988 8.112 22.5548 8.04C22.6108 7.968 22.6388 7.884 22.6388 7.788V5.436ZM27.6995 7.404H26.0555L25.8635 9H24.9395L25.8875 0.672H27.8555L28.8155 9H27.8795L27.6995 7.404ZM27.6035 6.564L27.0275 1.596H26.7155L26.1515 6.564H27.6035ZM33.479 0.672V1.596H31.955V9H31.031V1.596H29.507V0.672H33.479ZM37.8555 7.716C37.8555 7.948 37.8195 8.148 37.7475 8.316C37.6835 8.476 37.5915 8.608 37.4715 8.712C37.3595 8.808 37.2235 8.88 37.0635 8.928C36.9115 8.976 36.7475 9 36.5715 9H34.7715V0.672H35.6955V3.312H36.5715C36.8035 3.312 36.9995 3.348 37.1595 3.42C37.3275 3.484 37.4595 3.576 37.5555 3.696C37.6595 3.808 37.7355 3.944 37.7835 4.104C37.8315 4.256 37.8555 4.42 37.8555 4.596V7.716ZM36.9315 4.596C36.9315 4.492 36.9035 4.408 36.8475 4.344C36.7995 4.272 36.7075 4.236 36.5715 4.236H35.6955V8.076H36.5715C36.6755 8.076 36.7595 8.052 36.8235 8.004C36.8955 7.948 36.9315 7.852 36.9315 7.716V4.596Z" fill="#A1CAFE"/>
</svg>
