<svg width="14" height="13" viewBox="0 0 14 13" fill="none" xmlns="http://www.w3.org/2000/svg">
<path d="M13.3304 10.9228C13.7717 11.364 13.7717 11.8053 13.3304 12.2465C12.8892 12.6877 12.448 12.6877 12.0067 12.2465L7.31861 7.55839L2.57534 12.3017C2.13411 12.7429 1.69287 12.7429 1.25164 12.3017C0.810403 11.8604 0.810403 11.4192 1.25164 10.978L5.99491 6.23469L1.94107 2.18085C1.48145 1.72123 1.47226 1.2708 1.91349 0.829564C2.35472 0.38833 2.80515 0.397522 3.26477 0.857141L7.31861 4.91098L11.3173 0.912295C11.7769 0.452676 12.2273 0.443484 12.6686 0.884719C13.1098 1.32595 13.1006 1.77638 12.641 2.236L8.64232 6.23469L13.3304 10.9228Z" fill="black"/>
</svg>
