<svg width="46" height="11" viewBox="0 0 46 11" fill="none" xmlns="http://www.w3.org/2000/svg">
<path d="M0.928711 10V0.284H2.00671V10H0.928711ZM7.60387 8.502C7.60387 8.70733 7.57587 8.90333 7.51987 9.09C7.46387 9.26733 7.3752 9.426 7.25387 9.566C7.14187 9.69667 6.98787 9.804 6.79187 9.888C6.6052 9.96267 6.37653 10 6.10587 10H3.96387V0.284H6.10587C6.37653 0.284 6.6052 0.326 6.79187 0.409999C6.98787 0.484666 7.14187 0.591999 7.25387 0.731999C7.3752 0.862666 7.46387 1.02133 7.51987 1.208C7.57587 1.38533 7.60387 1.57667 7.60387 1.782V8.502ZM6.10587 8.922C6.2552 8.922 6.36253 8.88 6.42787 8.796C6.4932 8.712 6.52587 8.614 6.52587 8.502V1.782C6.52587 1.67 6.4932 1.572 6.42787 1.488C6.36253 1.404 6.2552 1.362 6.10587 1.362H5.04187V8.922H6.10587ZM9.43262 10V8.642H10.7906V10H9.43262ZM9.43262 2.65H10.7906V4.008H9.43262V2.65ZM17.2143 0.284V10H16.1363V1.362H14.7783V0.284H17.2143ZM21.4067 0.199999C21.6773 0.199999 21.906 0.241999 22.0927 0.325999C22.2887 0.400666 22.4427 0.508 22.5547 0.647999C22.676 0.778666 22.7647 0.937333 22.8207 1.124C22.8767 1.30133 22.9047 1.49267 22.9047 1.698V8.586C22.9047 8.79133 22.8767 8.98733 22.8207 9.174C22.7647 9.35133 22.676 9.51 22.5547 9.65C22.4427 9.78067 22.2887 9.888 22.0927 9.972C21.906 10.0467 21.6773 10.084 21.4067 10.084H20.6787C20.408 10.084 20.1747 10.0467 19.9787 9.972C19.792 9.888 19.638 9.78067 19.5167 9.65C19.4047 9.51 19.3207 9.35133 19.2647 9.174C19.2087 8.98733 19.1807 8.79133 19.1807 8.586V1.698C19.1807 1.49267 19.2087 1.30133 19.2647 1.124C19.3207 0.937333 19.4047 0.778666 19.5167 0.647999C19.638 0.508 19.792 0.400666 19.9787 0.325999C20.1747 0.241999 20.408 0.199999 20.6787 0.199999H21.4067ZM21.4067 9.006C21.556 9.006 21.6633 8.964 21.7287 8.88C21.794 8.796 21.8267 8.698 21.8267 8.586V1.698C21.8267 1.586 21.794 1.488 21.7287 1.404C21.6633 1.32 21.556 1.278 21.4067 1.278H20.6787C20.52 1.278 20.408 1.32 20.3427 1.404C20.2867 1.488 20.2587 1.586 20.2587 1.698V8.586C20.2587 8.698 20.2867 8.796 20.3427 8.88C20.408 8.964 20.52 9.006 20.6787 9.006H21.4067ZM28.5528 8.586C28.5528 8.79133 28.5248 8.98733 28.4688 9.174C28.4128 9.35133 28.3241 9.51 28.2028 9.65C28.0908 9.78067 27.9368 9.888 27.7408 9.972C27.5541 10.0467 27.3255 10.084 27.0548 10.084H26.2568C25.9861 10.084 25.7528 10.0467 25.5568 9.972C25.3701 9.888 25.2161 9.78067 25.0948 9.65C24.9828 9.51 24.8988 9.35133 24.8428 9.174C24.7868 8.98733 24.7588 8.79133 24.7588 8.586V5.38C24.7588 4.94133 24.8335 4.61467 24.9828 4.4C25.1415 4.176 25.3515 4.022 25.6128 3.938C25.3515 3.84467 25.1415 3.69067 24.9828 3.476C24.8335 3.252 24.7588 2.92067 24.7588 2.482V1.712C24.7588 1.292 24.8708 0.937333 25.0948 0.647999C25.3281 0.349333 25.7155 0.199999 26.2568 0.199999H27.0548C27.5961 0.199999 27.9788 0.349333 28.2028 0.647999C28.4361 0.937333 28.5528 1.292 28.5528 1.712V2.482C28.5528 2.92067 28.4735 3.252 28.3148 3.476C28.1655 3.69067 27.9601 3.84467 27.6988 3.938C27.9601 4.022 28.1655 4.176 28.3148 4.4C28.4735 4.61467 28.5528 4.94133 28.5528 5.38V8.586ZM27.4748 5.24C27.4748 4.99733 27.4048 4.78733 27.2648 4.61C27.1341 4.42333 26.9708 4.33 26.7748 4.33H26.5368C26.3501 4.33 26.1868 4.42333 26.0468 4.61C25.9068 4.78733 25.8368 4.99733 25.8368 5.24V8.586C25.8368 8.698 25.8648 8.796 25.9208 8.88C25.9861 8.964 26.0981 9.006 26.2568 9.006H27.0548C27.2135 9.006 27.3208 8.964 27.3768 8.88C27.4421 8.796 27.4748 8.698 27.4748 8.586V5.24ZM27.4748 1.712C27.4748 1.59067 27.4421 1.488 27.3768 1.404C27.3208 1.32 27.2135 1.278 27.0548 1.278H26.2568C26.0981 1.278 25.9861 1.32 25.9208 1.404C25.8648 1.488 25.8368 1.59067 25.8368 1.712V2.622C25.8368 2.86467 25.9068 3.07933 26.0468 3.266C26.1868 3.44333 26.3501 3.532 26.5368 3.532H26.7748C26.9708 3.532 27.1341 3.44333 27.2648 3.266C27.4048 3.07933 27.4748 2.86467 27.4748 2.622V1.712ZM31.4833 8.138V8.586C31.4833 8.698 31.5113 8.796 31.5673 8.88C31.6326 8.964 31.7446 9.006 31.9033 9.006H32.6173C32.7759 9.006 32.8833 8.964 32.9393 8.88C33.0046 8.796 33.0373 8.698 33.0373 8.586V6.906H31.9033C31.6326 6.906 31.3993 6.86867 31.2033 6.794C31.0166 6.71 30.8626 6.60267 30.7413 6.472C30.6293 6.332 30.5453 6.17333 30.4893 5.996C30.4333 5.80933 30.4053 5.61333 30.4053 5.408V1.698C30.4053 1.49267 30.4333 1.30133 30.4893 1.124C30.5453 0.937333 30.6293 0.778666 30.7413 0.647999C30.8626 0.508 31.0166 0.400666 31.2033 0.325999C31.3993 0.241999 31.6326 0.199999 31.9033 0.199999H32.6173C32.8879 0.199999 33.1166 0.241999 33.3033 0.325999C33.4993 0.400666 33.6533 0.508 33.7653 0.647999C33.8866 0.778666 33.9753 0.937333 34.0313 1.124C34.0873 1.30133 34.1153 1.49267 34.1153 1.698V8.586C34.1153 8.79133 34.0873 8.98733 34.0313 9.174C33.9753 9.35133 33.8866 9.51 33.7653 9.65C33.6533 9.78067 33.4993 9.888 33.3033 9.972C33.1166 10.0467 32.8879 10.084 32.6173 10.084H31.9033C31.6326 10.084 31.3993 10.0467 31.2033 9.972C31.0166 9.888 30.8626 9.78067 30.7413 9.65C30.6293 9.51 30.5453 9.35133 30.4893 9.174C30.4333 8.98733 30.4053 8.79133 30.4053 8.586V8.138H31.4833ZM33.0373 5.828V1.698C33.0373 1.57667 33.0046 1.47867 32.9393 1.404C32.8833 1.32 32.7759 1.278 32.6173 1.278H31.9033C31.7446 1.278 31.6326 1.32 31.5673 1.404C31.5113 1.47867 31.4833 1.57667 31.4833 1.698V5.408C31.4833 5.52 31.5113 5.618 31.5673 5.702C31.6326 5.786 31.7446 5.828 31.9033 5.828H33.0373ZM38.4504 3.392C38.805 3.43867 39.099 3.57867 39.3324 3.812C39.575 4.036 39.6964 4.39067 39.6964 4.876V8.502C39.6964 8.70733 39.6684 8.90333 39.6124 9.09C39.5564 9.26733 39.4677 9.426 39.3464 9.566C39.2344 9.69667 39.0804 9.804 38.8844 9.888C38.6977 9.96267 38.469 10 38.1984 10H37.3584C37.0877 10 36.8544 9.96267 36.6584 9.888C36.4717 9.804 36.3177 9.69667 36.1964 9.566C36.0844 9.426 36.0004 9.26733 35.9444 9.09C35.8884 8.90333 35.8604 8.70733 35.8604 8.502V5.842H36.9384V8.502C36.9384 8.614 36.9664 8.712 37.0224 8.796C37.0877 8.88 37.1997 8.922 37.3584 8.922H38.1984C38.3477 8.922 38.455 8.88 38.5204 8.796C38.5857 8.712 38.6184 8.614 38.6184 8.502V4.876C38.6184 4.72667 38.5764 4.61933 38.4924 4.554C38.4084 4.48867 38.3104 4.456 38.1984 4.456H37.2604V3.378L38.6184 1.544V1.362H35.8604V0.284H39.6964V1.908L38.4504 3.392ZM44.1395 5.828H45.2175V10H41.4795V5.66L44.1395 2.342V1.698C44.1395 1.586 44.1068 1.488 44.0415 1.404C43.9762 1.32 43.8688 1.278 43.7195 1.278H42.9775C42.8188 1.278 42.7068 1.32 42.6415 1.404C42.5855 1.488 42.5575 1.586 42.5575 1.698V2.538H41.4795V1.698C41.4795 1.49267 41.5075 1.30133 41.5635 1.124C41.6195 0.937333 41.7035 0.778666 41.8155 0.647999C41.9368 0.508 42.0908 0.400666 42.2775 0.325999C42.4735 0.241999 42.7068 0.199999 42.9775 0.199999H43.7195C43.9902 0.199999 44.2188 0.241999 44.4055 0.325999C44.6015 0.400666 44.7555 0.508 44.8675 0.647999C44.9888 0.778666 45.0775 0.937333 45.1335 1.124C45.1895 1.30133 45.2175 1.49267 45.2175 1.698V2.72L42.5575 6.038V8.922H44.1395V5.828Z" fill="#88A9D3"/>
</svg>
