<svg width="690" height="51" viewBox="0 0 690 51" fill="none" xmlns="http://www.w3.org/2000/svg">
<path d="M17.6354 1.20369L8.32281 3.11259C4.06021 3.98634 1 7.73746 1 12.0887V34.9502C1 39.5962 4.19982 43.6302 8.72386 44.6877L17.5062 46.7406C18.2523 46.915 19.0161 47.0031 19.7823 47.0031H611.989H655.961C656.696 47.0031 657.43 47.0842 658.147 47.245L668.564 49.5789C669.805 49.8571 671.088 49.8958 672.344 49.6929L680.594 48.3606C685.439 47.5782 689 43.3959 689 38.4885V12.8444C689 8.05514 685.604 3.93826 680.903 3.02706L671.385 1.18266C670.759 1.06117 670.122 1 669.483 1H404.15H77.5475H45.0281L19.6435 1C18.969 1 18.2962 1.06824 17.6354 1.20369Z" fill="#346FAA" fill-opacity="0.26" stroke="#88A9D3"/>
</svg>
