<svg width="48" height="11" viewBox="0 0 48 11" fill="none" xmlns="http://www.w3.org/2000/svg">
<path d="M5.32839 8.076V10.104H4.69239L4.51239 9H1.64439L1.56039 10.104H0.816391V8.076H1.35639C1.52439 7.964 1.61239 7.78 1.62039 7.524L1.89639 0.672H4.69239V8.076H5.32839ZM3.76839 8.076V1.596H2.78439L2.53239 7.56C2.51639 7.768 2.45239 7.94 2.34039 8.076H3.76839ZM9.57395 5.076C9.57395 5.308 9.53795 5.508 9.46595 5.676C9.40195 5.836 9.30995 5.968 9.18995 6.072C9.06995 6.168 8.92995 6.24 8.76995 6.288C8.61795 6.336 8.45395 6.36 8.27795 6.36H7.42595V9H6.50195V0.672H8.27795C8.50995 0.672 8.70595 0.708 8.86595 0.779999C9.03395 0.843999 9.16995 0.935999 9.27395 1.056C9.37795 1.168 9.45395 1.304 9.50195 1.464C9.54995 1.616 9.57395 1.78 9.57395 1.956V5.076ZM8.63795 1.956C8.63795 1.86 8.60995 1.776 8.55395 1.704C8.50595 1.632 8.41395 1.596 8.27795 1.596H7.42595V5.436H8.27795C8.38195 5.436 8.46595 5.412 8.52995 5.364C8.60195 5.308 8.63795 5.212 8.63795 5.076V1.956ZM13.4341 7.932C13.3781 8.236 13.2461 8.492 13.0381 8.7C12.8381 8.9 12.5461 9 12.1621 9H11.5141V8.076H12.1621C12.2661 8.076 12.3461 8.052 12.4021 8.004C12.4581 7.956 12.4941 7.9 12.5101 7.836L12.7861 6.348H11.9581L10.6621 0.672H11.6101L12.6181 5.424H12.9421L13.8061 0.672H14.7421L13.4341 7.932ZM17.7727 0.599999C18.0047 0.599999 18.2007 0.635999 18.3607 0.707999C18.5287 0.772 18.6607 0.864 18.7567 0.983999C18.8607 1.096 18.9367 1.232 18.9847 1.392C19.0327 1.544 19.0567 1.708 19.0567 1.884V2.544C19.0567 2.912 18.9887 3.196 18.8527 3.396C18.7247 3.588 18.5487 3.724 18.3247 3.804C18.5487 3.884 18.7247 4.016 18.8527 4.2C18.9887 4.376 19.0567 4.648 19.0567 5.016V7.788C19.0567 7.964 19.0327 8.132 18.9847 8.292C18.9367 8.444 18.8607 8.58 18.7567 8.7C18.6607 8.812 18.5287 8.904 18.3607 8.976C18.2007 9.04 18.0047 9.072 17.7727 9.072H17.1727C16.9407 9.072 16.7407 9.04 16.5727 8.976C16.4127 8.904 16.2807 8.812 16.1767 8.7C16.0807 8.58 16.0087 8.444 15.9607 8.292C15.9127 8.132 15.8887 7.964 15.8887 7.788V5.7H16.8127V7.788C16.8127 7.884 16.8367 7.968 16.8847 8.04C16.9407 8.112 17.0367 8.148 17.1727 8.148H17.7727C17.9087 8.148 18.0007 8.112 18.0487 8.04C18.1047 7.968 18.1327 7.884 18.1327 7.788V4.908C18.1327 4.692 18.0727 4.528 17.9527 4.416C17.8407 4.304 17.7007 4.248 17.5327 4.248H16.8127V3.312H17.5327C17.7007 3.312 17.8407 3.256 17.9527 3.144C18.0727 3.032 18.1327 2.868 18.1327 2.652V1.884C18.1327 1.788 18.1047 1.704 18.0487 1.632C18.0007 1.56 17.9087 1.524 17.7727 1.524H17.1727C17.0367 1.524 16.9407 1.56 16.8847 1.632C16.8367 1.704 16.8127 1.788 16.8127 1.884V2.388H15.8887V1.884C15.8887 1.708 15.9127 1.544 15.9607 1.392C16.0087 1.232 16.0807 1.096 16.1767 0.983999C16.2807 0.864 16.4127 0.772 16.5727 0.707999C16.7407 0.635999 16.9407 0.599999 17.1727 0.599999H17.7727ZM23.707 7.716C23.707 7.948 23.671 8.148 23.599 8.316C23.535 8.476 23.443 8.608 23.323 8.712C23.211 8.808 23.075 8.88 22.915 8.928C22.763 8.976 22.599 9 22.423 9H20.623V0.672H21.547V3.312H22.423C22.655 3.312 22.851 3.348 23.011 3.42C23.179 3.484 23.311 3.576 23.407 3.696C23.511 3.808 23.587 3.944 23.635 4.104C23.683 4.256 23.707 4.42 23.707 4.596V7.716ZM22.783 4.596C22.783 4.492 22.755 4.408 22.699 4.344C22.651 4.272 22.559 4.236 22.423 4.236H21.547V8.076H22.423C22.527 8.076 22.611 8.052 22.675 8.004C22.747 7.948 22.783 7.852 22.783 7.716V4.596ZM28.2096 0.672V9H27.2856V5.016H26.7576L25.8456 9H24.8976L25.8216 4.956C25.5896 4.884 25.3976 4.752 25.2456 4.56C25.0936 4.368 25.0176 4.092 25.0176 3.732V1.956C25.0176 1.78 25.0416 1.616 25.0896 1.464C25.1376 1.304 25.2096 1.168 25.3056 1.056C25.4096 0.935999 25.5416 0.843999 25.7016 0.779999C25.8696 0.708 26.0696 0.672 26.3016 0.672H28.2096ZM27.2856 1.596H26.3016C26.1656 1.596 26.0696 1.632 26.0136 1.704C25.9656 1.776 25.9416 1.86 25.9416 1.956V3.732C25.9416 3.86 25.9776 3.952 26.0496 4.008C26.1216 4.064 26.2056 4.092 26.3016 4.092H27.2856V1.596ZM29.8926 9V7.836H31.0566V9H29.8926ZM29.8926 2.7H31.0566V3.864H29.8926V2.7ZM37.7266 0.672V5.436H38.3266V6.36H37.7266V9H36.8026V6.36H34.4746V5.436L35.4586 0.672H37.7266ZM36.8026 5.436V1.596H36.2146L35.4226 5.436H36.8026ZM41.7102 3.336C42.0142 3.376 42.2662 3.496 42.4662 3.696C42.6742 3.888 42.7782 4.192 42.7782 4.608V7.716C42.7782 7.892 42.7542 8.06 42.7062 8.22C42.6582 8.372 42.5822 8.508 42.4782 8.628C42.3822 8.74 42.2502 8.832 42.0822 8.904C41.9222 8.968 41.7262 9 41.4942 9H40.7742C40.5422 9 40.3422 8.968 40.1742 8.904C40.0142 8.832 39.8822 8.74 39.7782 8.628C39.6822 8.508 39.6102 8.372 39.5622 8.22C39.5142 8.06 39.4902 7.892 39.4902 7.716V5.436H40.4142V7.716C40.4142 7.812 40.4382 7.896 40.4862 7.968C40.5422 8.04 40.6382 8.076 40.7742 8.076H41.4942C41.6222 8.076 41.7142 8.04 41.7702 7.968C41.8262 7.896 41.8542 7.812 41.8542 7.716V4.608C41.8542 4.48 41.8182 4.388 41.7462 4.332C41.6742 4.276 41.5902 4.248 41.4942 4.248H40.6902V3.324L41.8542 1.752V1.596H39.4902V0.672H42.7782V2.064L41.7102 3.336ZM46.5866 5.424H47.5106V9H44.3066V5.28L46.5866 2.436V1.884C46.5866 1.788 46.5586 1.704 46.5026 1.632C46.4466 1.56 46.3546 1.524 46.2266 1.524H45.5906C45.4546 1.524 45.3586 1.56 45.3026 1.632C45.2546 1.704 45.2306 1.788 45.2306 1.884V2.604H44.3066V1.884C44.3066 1.708 44.3306 1.544 44.3786 1.392C44.4266 1.232 44.4986 1.096 44.5946 0.983999C44.6986 0.864 44.8306 0.772 44.9906 0.707999C45.1586 0.635999 45.3586 0.599999 45.5906 0.599999H46.2266C46.4586 0.599999 46.6546 0.635999 46.8146 0.707999C46.9826 0.772 47.1146 0.864 47.2106 0.983999C47.3146 1.096 47.3906 1.232 47.4386 1.392C47.4866 1.544 47.5106 1.708 47.5106 1.884V2.76L45.2306 5.604V8.076H46.5866V5.424Z" fill="#A1CAFE"/>
</svg>
