<svg width="38" height="11" viewBox="0 0 38 11" fill="none" xmlns="http://www.w3.org/2000/svg">
<path d="M4.25488 1.672C4.48688 1.672 4.68288 1.708 4.84288 1.78C5.01088 1.844 5.14688 1.936 5.25088 2.056C5.35488 2.168 5.43088 2.304 5.47888 2.464C5.52688 2.616 5.55088 2.78 5.55088 2.956V7.132C5.55088 7.308 5.52688 7.476 5.47888 7.636C5.43088 7.788 5.35488 7.924 5.25088 8.044C5.14688 8.156 5.01088 8.248 4.84288 8.32C4.68288 8.384 4.48688 8.416 4.25488 8.416H3.51088V10H2.58688V8.416H1.83088C1.59888 8.416 1.39888 8.384 1.23088 8.32C1.07088 8.248 0.938875 8.156 0.834875 8.044C0.738875 7.924 0.666875 7.788 0.618875 7.636C0.570875 7.476 0.546875 7.308 0.546875 7.132V2.956C0.546875 2.78 0.570875 2.616 0.618875 2.464C0.666875 2.304 0.738875 2.168 0.834875 2.056C0.938875 1.936 1.07088 1.844 1.23088 1.78C1.39888 1.708 1.59888 1.672 1.83088 1.672H2.58688V0.663999H3.51088V1.672H4.25488ZM2.58688 2.596H1.83088C1.69488 2.596 1.59888 2.632 1.54288 2.704C1.49488 2.776 1.47088 2.86 1.47088 2.956V7.132C1.47088 7.228 1.49488 7.312 1.54288 7.384C1.59888 7.456 1.69488 7.492 1.83088 7.492H2.58688V2.596ZM4.25488 7.492C4.39088 7.492 4.48288 7.456 4.53088 7.384C4.58688 7.312 4.61488 7.228 4.61488 7.132V2.956C4.61488 2.86 4.58688 2.776 4.53088 2.704C4.48288 2.632 4.39088 2.596 4.25488 2.596H3.51088V7.492H4.25488ZM8.99591 1.6C9.22791 1.6 9.42391 1.636 9.58391 1.708C9.75191 1.772 9.88391 1.864 9.97991 1.984C10.0839 2.096 10.1599 2.232 10.2079 2.392C10.2559 2.544 10.2799 2.708 10.2799 2.884V8.788C10.2799 8.964 10.2559 9.132 10.2079 9.292C10.1599 9.444 10.0839 9.58 9.97991 9.7C9.88391 9.812 9.75191 9.904 9.58391 9.976C9.42391 10.04 9.22791 10.072 8.99591 10.072H8.28791C8.05591 10.072 7.85591 10.04 7.68791 9.976C7.52791 9.904 7.39591 9.812 7.29191 9.7C7.19591 9.58 7.12391 9.444 7.07591 9.292C7.02791 9.132 7.00391 8.964 7.00391 8.788V2.884C7.00391 2.708 7.02791 2.544 7.07591 2.392C7.12391 2.232 7.19591 2.096 7.29191 1.984C7.39591 1.864 7.52791 1.772 7.68791 1.708C7.85591 1.636 8.05591 1.6 8.28791 1.6H8.99591ZM8.99591 9.148C9.12391 9.148 9.21591 9.112 9.27191 9.04C9.32791 8.968 9.35591 8.884 9.35591 8.788V2.884C9.35591 2.788 9.32791 2.704 9.27191 2.632C9.21591 2.56 9.12391 2.524 8.99591 2.524H8.28791C8.15191 2.524 8.05591 2.56 7.99991 2.632C7.95191 2.704 7.92791 2.788 7.92791 2.884V8.788C7.92791 8.884 7.95191 8.968 7.99991 9.04C8.05591 9.112 8.15191 9.148 8.28791 9.148H8.99591ZM15.4379 1.672V2.596H13.9139V10H12.9899V2.596H11.4659V1.672H15.4379ZM18.6404 1.6C18.8724 1.6 19.0684 1.636 19.2284 1.708C19.3964 1.772 19.5284 1.864 19.6244 1.984C19.7284 2.096 19.8044 2.232 19.8524 2.392C19.9004 2.544 19.9244 2.708 19.9244 2.884V8.788C19.9244 8.964 19.9004 9.132 19.8524 9.292C19.8044 9.444 19.7284 9.58 19.6244 9.7C19.5284 9.812 19.3964 9.904 19.2284 9.976C19.0684 10.04 18.8724 10.072 18.6404 10.072H17.9324C17.7004 10.072 17.5004 10.04 17.3324 9.976C17.1724 9.904 17.0404 9.812 16.9364 9.7C16.8404 9.58 16.7684 9.444 16.7204 9.292C16.6724 9.132 16.6484 8.964 16.6484 8.788V2.884C16.6484 2.708 16.6724 2.544 16.7204 2.392C16.7684 2.232 16.8404 2.096 16.9364 1.984C17.0404 1.864 17.1724 1.772 17.3324 1.708C17.5004 1.636 17.7004 1.6 17.9324 1.6H18.6404ZM18.6404 9.148C18.7684 9.148 18.8604 9.112 18.9164 9.04C18.9724 8.968 19.0004 8.884 19.0004 8.788V2.884C19.0004 2.788 18.9724 2.704 18.9164 2.632C18.8604 2.56 18.7684 2.524 18.6404 2.524H17.9324C17.7964 2.524 17.7004 2.56 17.6444 2.632C17.5964 2.704 17.5724 2.788 17.5724 2.884V8.788C17.5724 8.884 17.5964 8.968 17.6444 9.04C17.7004 9.112 17.7964 9.148 17.9324 9.148H18.6404ZM21.5117 10V8.836H22.6757V10H21.5117ZM21.5117 3.7H22.6757V4.864H21.5117V3.7ZM28.1818 1.672V10H27.2578V2.596H26.0938V1.672H28.1818ZM32.1472 6.424H33.0712V10H29.8672V6.28L32.1472 3.436V2.884C32.1472 2.788 32.1192 2.704 32.0632 2.632C32.0072 2.56 31.9152 2.524 31.7872 2.524H31.1512C31.0152 2.524 30.9192 2.56 30.8632 2.632C30.8152 2.704 30.7912 2.788 30.7912 2.884V3.604H29.8672V2.884C29.8672 2.708 29.8912 2.544 29.9392 2.392C29.9872 2.232 30.0592 2.096 30.1552 1.984C30.2592 1.864 30.3912 1.772 30.5512 1.708C30.7192 1.636 30.9192 1.6 31.1512 1.6H31.7872C32.0192 1.6 32.2152 1.636 32.3752 1.708C32.5432 1.772 32.6752 1.864 32.7712 1.984C32.8752 2.096 32.9512 2.232 32.9992 2.392C33.0472 2.544 33.0712 2.708 33.0712 2.884V3.76L30.7912 6.604V9.076H32.1472V6.424ZM36.7981 4.336C37.1021 4.376 37.3541 4.496 37.5541 4.696C37.7621 4.888 37.8661 5.192 37.8661 5.608V8.716C37.8661 8.892 37.8421 9.06 37.7941 9.22C37.7461 9.372 37.6701 9.508 37.5661 9.628C37.4701 9.74 37.3381 9.832 37.1701 9.904C37.0101 9.968 36.8141 10 36.5821 10H35.8621C35.6301 10 35.4301 9.968 35.2621 9.904C35.1021 9.832 34.9701 9.74 34.8661 9.628C34.7701 9.508 34.6981 9.372 34.6501 9.22C34.6021 9.06 34.5781 8.892 34.5781 8.716V6.436H35.5021V8.716C35.5021 8.812 35.5261 8.896 35.5741 8.968C35.6301 9.04 35.7261 9.076 35.8621 9.076H36.5821C36.7101 9.076 36.8021 9.04 36.8581 8.968C36.9141 8.896 36.9421 8.812 36.9421 8.716V5.608C36.9421 5.48 36.9061 5.388 36.8341 5.332C36.7621 5.276 36.6781 5.248 36.5821 5.248H35.7781V4.324L36.9421 2.752V2.596H34.5781V1.672H37.8661V3.064L36.7981 4.336Z" fill="#A1CAFE"/>
</svg>
