<svg width="197" height="110" viewBox="0 0 197 110" fill="none" xmlns="http://www.w3.org/2000/svg">
<path d="M7.5332 11H6.7334L3.78027 6.33789L0.772461 11H0L3.36328 5.79102L0.307617 1.00586H1.09375L3.79395 5.28516L6.53516 1.00586H7.28027L4.18359 5.77734L7.5332 11ZM14.9229 7.27441C14.9229 8.48665 14.6289 9.43457 14.041 10.1182C13.4531 10.7972 12.6419 11.1367 11.6074 11.1367C10.9557 11.1367 10.3815 10.9795 9.88477 10.665C9.38802 10.3506 9.00749 9.89941 8.74316 9.31152C8.47884 8.72363 8.34668 8.0446 8.34668 7.27441C8.34668 6.06217 8.64062 5.11882 9.22852 4.44434C9.81641 3.7653 10.623 3.42578 11.6484 3.42578C12.6693 3.42578 13.4691 3.76986 14.0479 4.45801C14.6312 5.1416 14.9229 6.0804 14.9229 7.27441ZM9.05762 7.27441C9.05762 8.29525 9.28092 9.09277 9.72754 9.66699C10.1787 10.2367 10.8145 10.5215 11.6348 10.5215C12.4551 10.5215 13.0885 10.2367 13.5352 9.66699C13.9863 9.09277 14.2119 8.29525 14.2119 7.27441C14.2119 6.24902 13.984 5.45378 13.5283 4.88867C13.0771 4.32357 12.4414 4.04102 11.6211 4.04102C10.8008 4.04102 10.1673 4.32357 9.7207 4.88867C9.27865 5.44922 9.05762 6.24447 9.05762 7.27441ZM20.1592 11.1367C19.0153 11.1367 18.1813 10.7083 17.6572 9.85156H17.6094L17.6299 10.4258C17.6481 10.763 17.6572 11.1322 17.6572 11.5332V14.3633H16.9805V3.56934H17.5547L17.6846 4.62891H17.7256C18.236 3.82682 19.0518 3.42578 20.1729 3.42578C21.1755 3.42578 21.9388 3.75618 22.4629 4.41699C22.9915 5.07324 23.2559 6.03027 23.2559 7.28809C23.2559 8.50944 22.9779 9.45736 22.4219 10.1318C21.8704 10.8018 21.1162 11.1367 20.1592 11.1367ZM20.1455 10.5352C20.9066 10.5352 21.4945 10.2526 21.9092 9.6875C22.3285 9.1224 22.5381 8.33171 22.5381 7.31543C22.5381 5.13249 21.7497 4.04102 20.1729 4.04102C19.307 4.04102 18.6712 4.28027 18.2656 4.75879C17.86 5.23275 17.6572 6.00749 17.6572 7.08301V7.30176C17.6572 8.46387 17.8509 9.29329 18.2383 9.79004C18.6302 10.2868 19.266 10.5352 20.1455 10.5352ZM28.3213 11.1367C27.2412 11.1367 26.3981 10.804 25.792 10.1387C25.1904 9.47331 24.8896 8.54134 24.8896 7.34277C24.8896 6.15788 25.1813 5.20996 25.7646 4.49902C26.348 3.78353 27.1341 3.42578 28.123 3.42578C28.998 3.42578 29.6885 3.73112 30.1943 4.3418C30.7002 4.95247 30.9531 5.7819 30.9531 6.83008V7.37695H25.6006C25.6097 8.39779 25.8467 9.17708 26.3115 9.71484C26.7809 10.2526 27.4508 10.5215 28.3213 10.5215C28.7451 10.5215 29.1165 10.4919 29.4355 10.4326C29.7591 10.3734 30.167 10.2458 30.6592 10.0498V10.665C30.2399 10.8473 29.8525 10.9704 29.4971 11.0342C29.1416 11.1025 28.7497 11.1367 28.3213 11.1367ZM28.123 4.02734C27.4076 4.02734 26.8333 4.26432 26.4004 4.73828C25.9674 5.20768 25.7145 5.88672 25.6416 6.77539H30.2354C30.2354 5.91406 30.0485 5.24186 29.6748 4.75879C29.3011 4.27116 28.7839 4.02734 28.123 4.02734ZM39.1494 7.27441C39.1494 8.48665 38.8555 9.43457 38.2676 10.1182C37.6797 10.7972 36.8685 11.1367 35.834 11.1367C35.1823 11.1367 34.6081 10.9795 34.1113 10.665C33.6146 10.3506 33.234 9.89941 32.9697 9.31152C32.7054 8.72363 32.5732 8.0446 32.5732 7.27441C32.5732 6.06217 32.8672 5.11882 33.4551 4.44434C34.043 3.7653 34.8496 3.42578 35.875 3.42578C36.8958 3.42578 37.6956 3.76986 38.2744 4.45801C38.8577 5.1416 39.1494 6.0804 39.1494 7.27441ZM33.2842 7.27441C33.2842 8.29525 33.5075 9.09277 33.9541 9.66699C34.4053 10.2367 35.041 10.5215 35.8613 10.5215C36.6816 10.5215 37.3151 10.2367 37.7617 9.66699C38.2129 9.09277 38.4385 8.29525 38.4385 7.27441C38.4385 6.24902 38.2106 5.45378 37.7549 4.88867C37.3037 4.32357 36.668 4.04102 35.8477 4.04102C35.0273 4.04102 34.3939 4.32357 33.9473 4.88867C33.5052 5.44922 33.2842 6.24447 33.2842 7.27441ZM45.5752 4.15723H41.8838V11H41.207V3.56934H45.5752V4.15723ZM50.2783 11.1367C49.1344 11.1367 48.3005 10.7083 47.7764 9.85156H47.7285L47.749 10.4258C47.7673 10.763 47.7764 11.1322 47.7764 11.5332V14.3633H47.0996V3.56934H47.6738L47.8037 4.62891H47.8447C48.3551 3.82682 49.1709 3.42578 50.292 3.42578C51.2946 3.42578 52.0579 3.75618 52.582 4.41699C53.1107 5.07324 53.375 6.03027 53.375 7.28809C53.375 8.50944 53.097 9.45736 52.541 10.1318C51.9896 10.8018 51.2354 11.1367 50.2783 11.1367ZM50.2646 10.5352C51.0257 10.5352 51.6136 10.2526 52.0283 9.6875C52.4476 9.1224 52.6572 8.33171 52.6572 7.31543C52.6572 5.13249 51.8688 4.04102 50.292 4.04102C49.4261 4.04102 48.7904 4.28027 48.3848 4.75879C47.9792 5.23275 47.7764 6.00749 47.7764 7.08301V7.30176C47.7764 8.46387 47.9701 9.29329 48.3574 9.79004C48.7493 10.2868 49.3851 10.5352 50.2646 10.5352ZM59.9512 11L59.7803 9.82422H59.7256C59.3519 10.3027 58.9668 10.6423 58.5703 10.8428C58.1784 11.0387 57.7135 11.1367 57.1758 11.1367C56.4466 11.1367 55.8792 10.9499 55.4736 10.5762C55.068 10.2025 54.8652 9.68522 54.8652 9.02441C54.8652 8.2998 55.166 7.73698 55.7676 7.33594C56.3737 6.9349 57.2487 6.72298 58.3926 6.7002L59.8076 6.65918V6.16699C59.8076 5.46061 59.6641 4.92741 59.377 4.56738C59.0898 4.20736 58.6273 4.02734 57.9893 4.02734C57.3011 4.02734 56.5879 4.21875 55.8496 4.60156L55.5967 4.01367C56.4124 3.63086 57.2191 3.43945 58.0166 3.43945C58.8324 3.43945 59.4408 3.65137 59.8418 4.0752C60.2474 4.49902 60.4502 5.15983 60.4502 6.05762V11H59.9512ZM57.2168 10.5215C58.0098 10.5215 58.6341 10.2959 59.0898 9.84473C59.5501 9.389 59.7803 8.75781 59.7803 7.95117V7.21973L58.4814 7.27441C57.4378 7.32454 56.6927 7.48861 56.2461 7.7666C55.804 8.04004 55.583 8.46842 55.583 9.05176C55.583 9.5166 55.7243 9.87891 56.0068 10.1387C56.2939 10.3939 56.6973 10.5215 57.2168 10.5215ZM70.1846 7.27441C70.1846 8.41829 69.8747 9.32747 69.2549 10.002C68.6396 10.6764 67.7738 11.0547 66.6572 11.1367V14.3633H65.9873V11.1367C64.8753 11.0729 64.0049 10.7038 63.376 10.0293C62.7471 9.35482 62.4326 8.43652 62.4326 7.27441C62.4326 6.13053 62.7425 5.22363 63.3623 4.55371C63.9821 3.88379 64.8571 3.50781 65.9873 3.42578V0.363281H66.6572V3.42578C67.7783 3.50781 68.6465 3.88379 69.2617 4.55371C69.877 5.22363 70.1846 6.13053 70.1846 7.27441ZM63.1436 7.27441C63.1436 8.24512 63.3896 9.01074 63.8818 9.57129C64.3786 10.1273 65.0804 10.4395 65.9873 10.5078V4.05469C65.0531 4.13216 64.3444 4.44889 63.8613 5.00488C63.3828 5.55632 63.1436 6.31283 63.1436 7.27441ZM69.4736 7.27441C69.4736 6.32194 69.2298 5.56771 68.7422 5.01172C68.2546 4.45117 67.5596 4.13216 66.6572 4.05469V10.5078C67.5687 10.4303 68.266 10.1068 68.749 9.53711C69.2321 8.96745 69.4736 8.21322 69.4736 7.27441ZM8.5791 30H7.88184V20.6621H2.1123V30H1.41504V20.0059H8.5791V30ZM17.3838 26.2744C17.3838 27.4867 17.0898 28.4346 16.502 29.1182C15.9141 29.7972 15.1029 30.1367 14.0684 30.1367C13.4167 30.1367 12.8424 29.9795 12.3457 29.665C11.849 29.3506 11.4684 28.8994 11.2041 28.3115C10.9398 27.7236 10.8076 27.0446 10.8076 26.2744C10.8076 25.0622 11.1016 24.1188 11.6895 23.4443C12.2773 22.7653 13.084 22.4258 14.1094 22.4258C15.1302 22.4258 15.93 22.7699 16.5088 23.458C17.0921 24.1416 17.3838 25.0804 17.3838 26.2744ZM11.5186 26.2744C11.5186 27.2952 11.7419 28.0928 12.1885 28.667C12.6396 29.2367 13.2754 29.5215 14.0957 29.5215C14.916 29.5215 15.5495 29.2367 15.9961 28.667C16.4473 28.0928 16.6729 27.2952 16.6729 26.2744C16.6729 25.249 16.445 24.4538 15.9893 23.8887C15.5381 23.3236 14.9023 23.041 14.082 23.041C13.2617 23.041 12.6283 23.3236 12.1816 23.8887C11.7396 24.4492 11.5186 25.2445 11.5186 26.2744ZM22.4082 30.1367C21.3464 30.1367 20.5146 29.8018 19.9131 29.1318C19.3115 28.4619 19.0107 27.5277 19.0107 26.3291C19.0107 25.0986 19.3229 24.1416 19.9473 23.458C20.5716 22.7699 21.4261 22.4258 22.5107 22.4258C23.1533 22.4258 23.7686 22.5374 24.3564 22.7607L24.1719 23.3623C23.5293 23.1481 22.971 23.041 22.4971 23.041C21.5856 23.041 20.8952 23.3236 20.4258 23.8887C19.9564 24.4492 19.7217 25.2581 19.7217 26.3154C19.7217 27.318 19.9564 28.1042 20.4258 28.6738C20.8952 29.2389 21.5514 29.5215 22.3945 29.5215C23.069 29.5215 23.6956 29.4007 24.2744 29.1592V29.7881C23.8005 30.0205 23.1784 30.1367 22.4082 30.1367ZM30.8164 23.1572H28.3418V30H27.6719V23.1572H25.1357V22.5693H30.8164V23.1572ZM36.8594 30L36.6885 28.8242H36.6338C36.2601 29.3027 35.875 29.6423 35.4785 29.8428C35.0866 30.0387 34.6217 30.1367 34.084 30.1367C33.3548 30.1367 32.7874 29.9499 32.3818 29.5762C31.9762 29.2025 31.7734 28.6852 31.7734 28.0244C31.7734 27.2998 32.0742 26.737 32.6758 26.3359C33.2819 25.9349 34.1569 25.723 35.3008 25.7002L36.7158 25.6592V25.167C36.7158 24.4606 36.5723 23.9274 36.2852 23.5674C35.998 23.2074 35.5355 23.0273 34.8975 23.0273C34.2093 23.0273 33.4961 23.2188 32.7578 23.6016L32.5049 23.0137C33.3206 22.6309 34.1273 22.4395 34.9248 22.4395C35.7406 22.4395 36.349 22.6514 36.75 23.0752C37.1556 23.499 37.3584 24.1598 37.3584 25.0576V30H36.8594ZM34.125 29.5215C34.918 29.5215 35.5423 29.2959 35.998 28.8447C36.4583 28.389 36.6885 27.7578 36.6885 26.9512V26.2197L35.3896 26.2744C34.346 26.3245 33.6009 26.4886 33.1543 26.7666C32.7122 27.04 32.4912 27.4684 32.4912 28.0518C32.4912 28.5166 32.6325 28.8789 32.915 29.1387C33.2021 29.3939 33.6055 29.5215 34.125 29.5215ZM40.4482 22.5693V25.8301H45.165V22.5693H45.835V30H45.165V26.418H40.4482V30H39.7715V22.5693H40.4482ZM54.4756 26.2744C54.4756 27.4867 54.1816 28.4346 53.5938 29.1182C53.0059 29.7972 52.1947 30.1367 51.1602 30.1367C50.5085 30.1367 49.9342 29.9795 49.4375 29.665C48.9408 29.3506 48.5602 28.8994 48.2959 28.3115C48.0316 27.7236 47.8994 27.0446 47.8994 26.2744C47.8994 25.0622 48.1934 24.1188 48.7812 23.4443C49.3691 22.7653 50.1758 22.4258 51.2012 22.4258C52.222 22.4258 53.0218 22.7699 53.6006 23.458C54.1839 24.1416 54.4756 25.0804 54.4756 26.2744ZM48.6104 26.2744C48.6104 27.2952 48.8337 28.0928 49.2803 28.667C49.7314 29.2367 50.3672 29.5215 51.1875 29.5215C52.0078 29.5215 52.6413 29.2367 53.0879 28.667C53.5391 28.0928 53.7646 27.2952 53.7646 26.2744C53.7646 25.249 53.5368 24.4538 53.0811 23.8887C52.6299 23.3236 51.9941 23.041 51.1738 23.041C50.3535 23.041 49.7201 23.3236 49.2734 23.8887C48.8314 24.4492 48.6104 25.2445 48.6104 26.2744ZM62.2344 24.3604C62.2344 24.8298 62.1182 25.1989 61.8857 25.4678C61.6533 25.7321 61.2751 25.9167 60.751 26.0215V26.0693C61.348 26.1377 61.7786 26.3109 62.043 26.5889C62.3118 26.8623 62.4463 27.2565 62.4463 27.7715C62.4463 28.487 62.2093 29.0384 61.7354 29.4258C61.266 29.8086 60.5778 30 59.6709 30H56.5332V22.5693H59.6846C60.5322 22.5693 61.168 22.722 61.5918 23.0273C62.0202 23.3327 62.2344 23.777 62.2344 24.3604ZM61.7285 27.7578C61.7285 26.8464 61.029 26.3906 59.6299 26.3906H57.21V29.3574H59.7256C61.0609 29.3574 61.7285 28.8242 61.7285 27.7578ZM61.5166 24.415C61.5166 23.9821 61.3617 23.6745 61.0518 23.4922C60.7419 23.3053 60.277 23.2119 59.6572 23.2119H57.21V25.7549H59.5752C60.2679 25.7549 60.7646 25.6478 61.0654 25.4336C61.3662 25.2194 61.5166 24.8799 61.5166 24.415ZM69.5215 29.3574H73.2266V22.5693H73.9033V29.3574H74.8945V32.5225H74.2246V30H64.4629V22.5693H65.1396V29.3574H68.8447V22.5693H69.5215V29.3574ZM77.123 22.5693V27.9424L77.082 29.3438L81.4912 22.5693H82.3936V30H81.7441V24.6611L81.7715 23.2256L77.3623 30H76.4805V22.5693H77.123ZM88.9219 22.5693H89.7627L86.4336 26.165L90.002 30H89.0928L85.5791 26.2334V30H84.8887V22.5693H85.5791V26.1787L88.9219 22.5693ZM1.41504 39.0059H4.15625C5.39128 39.0059 6.29818 39.2155 6.87695 39.6348C7.45573 40.054 7.74512 40.6875 7.74512 41.5352C7.74512 42.1139 7.56738 42.597 7.21191 42.9844C6.861 43.3672 6.34603 43.6133 5.66699 43.7227V43.7637C6.46452 43.8822 7.05013 44.1351 7.42383 44.5225C7.80208 44.9053 7.99121 45.4408 7.99121 46.1289C7.99121 47.0495 7.68587 47.7581 7.0752 48.2549C6.46452 48.7516 5.59863 49 4.47754 49H1.41504V39.0059ZM2.1123 43.4561H4.31348C5.25228 43.4561 5.93359 43.3011 6.35742 42.9912C6.78581 42.6768 7 42.1868 7 41.5215C7 40.8561 6.75846 40.373 6.27539 40.0723C5.79688 39.7715 5.08138 39.6211 4.12891 39.6211H2.1123V43.4561ZM2.1123 44.0713V48.3848H4.46387C6.31413 48.3848 7.23926 47.6328 7.23926 46.1289C7.23926 44.7572 6.264 44.0713 4.31348 44.0713H2.1123ZM16.085 51.5225H15.415V49H9.72754V51.5225H9.05762V48.3574H9.5498C10.1696 47.487 10.6481 46.4775 10.9854 45.3291C11.3226 44.1807 11.5003 42.9274 11.5186 41.5693H15.0938V48.3574H16.085V51.5225ZM14.417 48.3574V42.1982H12.1064C11.9971 44.6637 11.4001 46.7168 10.3154 48.3574H14.417ZM23.8096 45.2744C23.8096 46.4867 23.5156 47.4346 22.9277 48.1182C22.3398 48.7972 21.5286 49.1367 20.4941 49.1367C19.8424 49.1367 19.2682 48.9795 18.7715 48.665C18.2747 48.3506 17.8942 47.8994 17.6299 47.3115C17.3656 46.7236 17.2334 46.0446 17.2334 45.2744C17.2334 44.0622 17.5273 43.1188 18.1152 42.4443C18.7031 41.7653 19.5098 41.4258 20.5352 41.4258C21.556 41.4258 22.3558 41.7699 22.9346 42.458C23.5179 43.1416 23.8096 44.0804 23.8096 45.2744ZM17.9443 45.2744C17.9443 46.2952 18.1676 47.0928 18.6143 47.667C19.0654 48.2367 19.7012 48.5215 20.5215 48.5215C21.3418 48.5215 21.9753 48.2367 22.4219 47.667C22.873 47.0928 23.0986 46.2952 23.0986 45.2744C23.0986 44.249 22.8708 43.4538 22.415 42.8887C21.9639 42.3236 21.3281 42.041 20.5078 42.041C19.6875 42.041 19.054 42.3236 18.6074 42.8887C18.1654 43.4492 17.9443 44.2445 17.9443 45.2744ZM27.6924 45.1787L25.1016 41.5693H25.8809L28.0957 44.7002L30.29 41.5693H31.0352L28.4854 45.1787L31.2197 49H30.4336L28.0957 45.6846L25.7441 49H24.999L27.6924 45.1787ZM33.5166 41.5693V44.8301H38.2334V41.5693H38.9033V49H38.2334V45.418H33.5166V49H32.8398V41.5693H33.5166ZM47.5439 45.2744C47.5439 46.4867 47.25 47.4346 46.6621 48.1182C46.0742 48.7972 45.263 49.1367 44.2285 49.1367C43.5768 49.1367 43.0026 48.9795 42.5059 48.665C42.0091 48.3506 41.6286 47.8994 41.3643 47.3115C41.0999 46.7236 40.9678 46.0446 40.9678 45.2744C40.9678 44.0622 41.2617 43.1188 41.8496 42.4443C42.4375 41.7653 43.2441 41.4258 44.2695 41.4258C45.2904 41.4258 46.0902 41.7699 46.6689 42.458C47.2523 43.1416 47.5439 44.0804 47.5439 45.2744ZM41.6787 45.2744C41.6787 46.2952 41.902 47.0928 42.3486 47.667C42.7998 48.2367 43.4355 48.5215 44.2559 48.5215C45.0762 48.5215 45.7096 48.2367 46.1562 47.667C46.6074 47.0928 46.833 46.2952 46.833 45.2744C46.833 44.249 46.6051 43.4538 46.1494 42.8887C45.6982 42.3236 45.0625 42.041 44.2422 42.041C43.4219 42.041 42.7884 42.3236 42.3418 42.8887C41.8997 43.4492 41.6787 44.2445 41.6787 45.2744ZM55.3027 43.3604C55.3027 43.8298 55.1865 44.1989 54.9541 44.4678C54.7217 44.7321 54.3434 44.9167 53.8193 45.0215V45.0693C54.4163 45.1377 54.847 45.3109 55.1113 45.5889C55.3802 45.8623 55.5146 46.2565 55.5146 46.7715C55.5146 47.487 55.2777 48.0384 54.8037 48.4258C54.3343 48.8086 53.6462 49 52.7393 49H49.6016V41.5693H52.7529C53.6006 41.5693 54.2363 41.722 54.6602 42.0273C55.0885 42.3327 55.3027 42.777 55.3027 43.3604ZM54.7969 46.7578C54.7969 45.8464 54.0973 45.3906 52.6982 45.3906H50.2783V48.3574H52.7939C54.1292 48.3574 54.7969 47.8242 54.7969 46.7578ZM54.585 43.415C54.585 42.9821 54.43 42.6745 54.1201 42.4922C53.8102 42.3053 53.3454 42.2119 52.7256 42.2119H50.2783V44.7549H52.6436C53.3363 44.7549 53.833 44.6478 54.1338 44.4336C54.4346 44.2194 54.585 43.8799 54.585 43.415ZM58.1738 41.5693V46.9424L58.1328 48.3438L62.542 41.5693H63.4443V49H62.7949V43.6611L62.8223 42.2256L58.4131 49H57.5312V41.5693H58.1738ZM70.6562 42.1572H68.1816V49H67.5117V42.1572H64.9756V41.5693H70.6562V42.1572ZM75.1885 49.1367C74.1084 49.1367 73.2653 48.804 72.6592 48.1387C72.0576 47.4733 71.7568 46.5413 71.7568 45.3428C71.7568 44.1579 72.0485 43.21 72.6318 42.499C73.2152 41.7835 74.0013 41.4258 74.9902 41.4258C75.8652 41.4258 76.5557 41.7311 77.0615 42.3418C77.5674 42.9525 77.8203 43.7819 77.8203 44.8301V45.377H72.4678C72.4769 46.3978 72.7139 47.1771 73.1787 47.7148C73.6481 48.2526 74.318 48.5215 75.1885 48.5215C75.6123 48.5215 75.9837 48.4919 76.3027 48.4326C76.6263 48.3734 77.0342 48.2458 77.5264 48.0498V48.665C77.1071 48.8473 76.7197 48.9704 76.3643 49.0342C76.0088 49.1025 75.6169 49.1367 75.1885 49.1367ZM74.9902 42.0273C74.2747 42.0273 73.7005 42.2643 73.2676 42.7383C72.8346 43.2077 72.5817 43.8867 72.5088 44.7754H77.1025C77.1025 43.9141 76.9157 43.2419 76.542 42.7588C76.1683 42.2712 75.651 42.0273 74.9902 42.0273ZM85.0117 49H84.3418V42.1982H81.71C81.5732 43.9984 81.4046 45.3724 81.2041 46.3203C81.0081 47.2637 80.7529 47.9587 80.4385 48.4053C80.1286 48.8473 79.7253 49.0684 79.2285 49.0684C79.0508 49.0684 78.8958 49.0501 78.7637 49.0137V48.3984C78.8503 48.4258 78.9733 48.4395 79.1328 48.4395C79.6478 48.4395 80.0625 47.8971 80.377 46.8125C80.696 45.7233 80.9375 43.9756 81.1016 41.5693H85.0117V49ZM88.1768 44.7002H90.7949C92.5404 44.7002 93.4131 45.3861 93.4131 46.7578C93.4131 47.4642 93.1693 48.0156 92.6816 48.4121C92.194 48.804 91.4945 49 90.583 49H87.5V41.5693H88.1768V44.7002ZM88.1768 45.3428V48.3574H90.6924C91.3395 48.3574 91.834 48.2207 92.1758 47.9473C92.5221 47.6738 92.6953 47.2728 92.6953 46.7441C92.6953 46.252 92.5426 45.8965 92.2373 45.6777C91.932 45.4544 91.4033 45.3428 90.6514 45.3428H88.1768ZM3.96484 60.4258C4.5026 60.4258 4.96745 60.5238 5.35938 60.7197C5.7513 60.9157 6.10221 61.2507 6.41211 61.7246H6.45312C6.42578 61.1504 6.41211 60.5876 6.41211 60.0361V57.3633H7.08203V68H6.6377L6.4668 66.8652H6.41211C5.84701 67.7129 5.03581 68.1367 3.97852 68.1367C2.95312 68.1367 2.16927 67.8177 1.62695 67.1797C1.08464 66.5417 0.813477 65.612 0.813477 64.3906C0.813477 63.1055 1.08236 62.1234 1.62012 61.4443C2.15788 60.7653 2.93945 60.4258 3.96484 60.4258ZM3.96484 61.041C3.15365 61.041 2.54297 61.3258 2.13281 61.8955C1.72721 62.4652 1.52441 63.2923 1.52441 64.377C1.52441 66.4824 2.34245 67.5352 3.97852 67.5352C4.81706 67.5352 5.43229 67.2913 5.82422 66.8037C6.21615 66.3161 6.41211 65.5117 6.41211 64.3906V64.2744C6.41211 63.126 6.21842 62.3011 5.83105 61.7998C5.44824 61.2939 4.82617 61.041 3.96484 61.041ZM14.0957 68L13.9248 66.8242H13.8701C13.4964 67.3027 13.1113 67.6423 12.7148 67.8428C12.3229 68.0387 11.8581 68.1367 11.3203 68.1367C10.5911 68.1367 10.0238 67.9499 9.61816 67.5762C9.21257 67.2025 9.00977 66.6852 9.00977 66.0244C9.00977 65.2998 9.31055 64.737 9.91211 64.3359C10.5182 63.9349 11.3932 63.723 12.5371 63.7002L13.9521 63.6592V63.167C13.9521 62.4606 13.8086 61.9274 13.5215 61.5674C13.2344 61.2074 12.7718 61.0273 12.1338 61.0273C11.4456 61.0273 10.7324 61.2188 9.99414 61.6016L9.74121 61.0137C10.557 60.6309 11.3636 60.4395 12.1611 60.4395C12.9769 60.4395 13.5853 60.6514 13.9863 61.0752C14.3919 61.499 14.5947 62.1598 14.5947 63.0576V68H14.0957ZM11.3613 67.5215C12.1543 67.5215 12.7786 67.2959 13.2344 66.8447C13.6947 66.389 13.9248 65.7578 13.9248 64.9512V64.2197L12.626 64.2744C11.5824 64.3245 10.8372 64.4886 10.3906 64.7666C9.94857 65.04 9.72754 65.4684 9.72754 66.0518C9.72754 66.5166 9.86882 66.8789 10.1514 67.1387C10.4385 67.3939 10.8418 67.5215 11.3613 67.5215ZM22.1895 68V63.1807C22.1895 62.4333 22.0322 61.891 21.7178 61.5537C21.4033 61.2119 20.9157 61.041 20.2549 61.041C19.3662 61.041 18.7145 61.2666 18.2998 61.7178C17.8896 62.1644 17.6846 62.8913 17.6846 63.8984V68H17.0078V60.5693H17.582L17.7119 61.5879H17.7529C18.236 60.8132 19.0951 60.4258 20.3301 60.4258C22.0163 60.4258 22.8594 61.3304 22.8594 63.1396V68H22.1895ZM28.2324 68.1367C27.1706 68.1367 26.3389 67.8018 25.7373 67.1318C25.1357 66.4619 24.835 65.5277 24.835 64.3291C24.835 63.0986 25.1471 62.1416 25.7715 61.458C26.3958 60.7699 27.2503 60.4258 28.335 60.4258C28.9775 60.4258 29.5928 60.5374 30.1807 60.7607L29.9961 61.3623C29.3535 61.1481 28.7952 61.041 28.3213 61.041C27.4098 61.041 26.7194 61.3236 26.25 61.8887C25.7806 62.4492 25.5459 63.2581 25.5459 64.3154C25.5459 65.318 25.7806 66.1042 26.25 66.6738C26.7194 67.2389 27.3757 67.5215 28.2188 67.5215C28.8932 67.5215 29.5199 67.4007 30.0986 67.1592V67.7881C29.6247 68.0205 29.0026 68.1367 28.2324 68.1367ZM34.9248 68.1367C33.8447 68.1367 33.0016 67.804 32.3955 67.1387C31.7939 66.4733 31.4932 65.5413 31.4932 64.3428C31.4932 63.1579 31.7848 62.21 32.3682 61.499C32.9515 60.7835 33.7376 60.4258 34.7266 60.4258C35.6016 60.4258 36.292 60.7311 36.7979 61.3418C37.3037 61.9525 37.5566 62.7819 37.5566 63.8301V64.377H32.2041C32.2132 65.3978 32.4502 66.1771 32.915 66.7148C33.3844 67.2526 34.0544 67.5215 34.9248 67.5215C35.3486 67.5215 35.7201 67.4919 36.0391 67.4326C36.3626 67.3734 36.7705 67.2458 37.2627 67.0498V67.665C36.8434 67.8473 36.4561 67.9704 36.1006 68.0342C35.7451 68.1025 35.3532 68.1367 34.9248 68.1367ZM34.7266 61.0273C34.0111 61.0273 33.4368 61.2643 33.0039 61.7383C32.571 62.2077 32.318 62.8867 32.2451 63.7754H36.8389C36.8389 62.9141 36.652 62.2419 36.2783 61.7588C35.9046 61.2712 35.3874 61.0273 34.7266 61.0273ZM44.1465 69.8184H38.3359V69.2578H44.1465V69.8184ZM49.9707 66.0654C49.9707 66.7308 49.7178 67.2435 49.2119 67.6035C48.7061 67.959 47.9883 68.1367 47.0586 68.1367C46.0651 68.1367 45.2767 67.984 44.6934 67.6787V66.9473C45.4408 67.321 46.2292 67.5078 47.0586 67.5078C47.7923 67.5078 48.3483 67.387 48.7266 67.1455C49.1094 66.8994 49.3008 66.5736 49.3008 66.168C49.3008 65.7943 49.1481 65.4798 48.8428 65.2246C48.542 64.9694 48.0452 64.7188 47.3525 64.4727C46.6097 64.2038 46.0879 63.9736 45.7871 63.7822C45.4863 63.5863 45.2585 63.3675 45.1035 63.126C44.9531 62.8799 44.8779 62.5814 44.8779 62.2305C44.8779 61.6745 45.1104 61.2347 45.5752 60.9111C46.0446 60.5876 46.6986 60.4258 47.5371 60.4258C48.3392 60.4258 49.1003 60.5762 49.8203 60.877L49.5674 61.4922C48.8382 61.1914 48.1615 61.041 47.5371 61.041C46.931 61.041 46.4502 61.1413 46.0947 61.3418C45.7393 61.5423 45.5615 61.8203 45.5615 62.1758C45.5615 62.5632 45.6982 62.873 45.9717 63.1055C46.2497 63.3379 46.7897 63.5977 47.5918 63.8848C48.2617 64.1263 48.7493 64.3451 49.0547 64.541C49.36 64.7324 49.5879 64.9512 49.7383 65.1973C49.8932 65.4434 49.9707 65.7327 49.9707 66.0654ZM54.8516 68.1367C53.7897 68.1367 52.958 67.8018 52.3564 67.1318C51.7549 66.4619 51.4541 65.5277 51.4541 64.3291C51.4541 63.0986 51.7663 62.1416 52.3906 61.458C53.015 60.7699 53.8695 60.4258 54.9541 60.4258C55.5967 60.4258 56.2119 60.5374 56.7998 60.7607L56.6152 61.3623C55.9727 61.1481 55.4144 61.041 54.9404 61.041C54.029 61.041 53.3385 61.3236 52.8691 61.8887C52.3997 62.4492 52.165 63.2581 52.165 64.3154C52.165 65.318 52.3997 66.1042 52.8691 66.6738C53.3385 67.2389 53.9948 67.5215 54.8379 67.5215C55.5124 67.5215 56.139 67.4007 56.7178 67.1592V67.7881C56.2438 68.0205 55.6217 68.1367 54.8516 68.1367ZM63.7246 68V63.1807C63.7246 62.4333 63.5674 61.891 63.2529 61.5537C62.9385 61.2119 62.4508 61.041 61.79 61.041C60.9014 61.041 60.2497 61.2666 59.835 61.7178C59.4248 62.1644 59.2197 62.8913 59.2197 63.8984V68H58.543V57.3633H59.2197V60.7471L59.1855 61.6973H59.2334C59.5114 61.2507 59.8623 60.9271 60.2861 60.7266C60.71 60.526 61.2363 60.4258 61.8652 60.4258C63.5514 60.4258 64.3945 61.3304 64.3945 63.1396V68H63.7246ZM72.9463 64.2744C72.9463 65.4867 72.6523 66.4346 72.0645 67.1182C71.4766 67.7972 70.6654 68.1367 69.6309 68.1367C68.9792 68.1367 68.4049 67.9795 67.9082 67.665C67.4115 67.3506 67.0309 66.8994 66.7666 66.3115C66.5023 65.7236 66.3701 65.0446 66.3701 64.2744C66.3701 63.0622 66.6641 62.1188 67.252 61.4443C67.8398 60.7653 68.6465 60.4258 69.6719 60.4258C70.6927 60.4258 71.4925 60.7699 72.0713 61.458C72.6546 62.1416 72.9463 63.0804 72.9463 64.2744ZM67.0811 64.2744C67.0811 65.2952 67.3044 66.0928 67.751 66.667C68.2021 67.2367 68.8379 67.5215 69.6582 67.5215C70.4785 67.5215 71.112 67.2367 71.5586 66.667C72.0098 66.0928 72.2354 65.2952 72.2354 64.2744C72.2354 63.249 72.0075 62.4538 71.5518 61.8887C71.1006 61.3236 70.4648 61.041 69.6445 61.041C68.8242 61.041 68.1908 61.3236 67.7441 61.8887C67.3021 62.4492 67.0811 63.2445 67.0811 64.2744ZM81.1494 64.2744C81.1494 65.4867 80.8555 66.4346 80.2676 67.1182C79.6797 67.7972 78.8685 68.1367 77.834 68.1367C77.1823 68.1367 76.6081 67.9795 76.1113 67.665C75.6146 67.3506 75.234 66.8994 74.9697 66.3115C74.7054 65.7236 74.5732 65.0446 74.5732 64.2744C74.5732 63.0622 74.8672 62.1188 75.4551 61.4443C76.043 60.7653 76.8496 60.4258 77.875 60.4258C78.8958 60.4258 79.6956 60.7699 80.2744 61.458C80.8577 62.1416 81.1494 63.0804 81.1494 64.2744ZM75.2842 64.2744C75.2842 65.2952 75.5075 66.0928 75.9541 66.667C76.4053 67.2367 77.041 67.5215 77.8613 67.5215C78.6816 67.5215 79.3151 67.2367 79.7617 66.667C80.2129 66.0928 80.4385 65.2952 80.4385 64.2744C80.4385 63.249 80.2106 62.4538 79.7549 61.8887C79.3037 61.3236 78.668 61.041 77.8477 61.041C77.0273 61.041 76.3939 61.3236 75.9473 61.8887C75.5052 62.4492 75.2842 63.2445 75.2842 64.2744ZM83.8838 68H83.207V57.3633H83.8838V68ZM90.918 69.8184H85.1074V69.2578H90.918V69.8184ZM101.418 68V63.126C101.418 62.4014 101.277 61.8727 100.994 61.54C100.712 61.2074 100.279 61.041 99.6953 61.041C98.9342 61.041 98.3714 61.2507 98.0068 61.6699C97.6423 62.0892 97.46 62.7477 97.46 63.6455V68H96.7695V62.9209C96.7695 61.6676 96.1953 61.041 95.0469 61.041C94.2676 61.041 93.7002 61.2689 93.3447 61.7246C92.9893 62.1758 92.8115 62.9004 92.8115 63.8984V68H92.1348V60.5693H92.6953L92.8389 61.5879H92.8799C93.085 61.2188 93.3766 60.9339 93.7549 60.7334C94.1331 60.5283 94.5501 60.4258 95.0059 60.4258C96.1771 60.4258 96.929 60.8656 97.2617 61.7451H97.2891C97.5306 61.3213 97.8542 60.9954 98.2598 60.7676C98.6699 60.5397 99.1348 60.4258 99.6543 60.4258C100.465 60.4258 101.074 60.6423 101.479 61.0752C101.885 61.5081 102.088 62.1963 102.088 63.1396V68H101.418ZM107.495 68.1367C106.415 68.1367 105.572 67.804 104.966 67.1387C104.364 66.4733 104.063 65.5413 104.063 64.3428C104.063 63.1579 104.355 62.21 104.938 61.499C105.522 60.7835 106.308 60.4258 107.297 60.4258C108.172 60.4258 108.862 60.7311 109.368 61.3418C109.874 61.9525 110.127 62.7819 110.127 63.8301V64.377H104.774C104.784 65.3978 105.021 66.1771 105.485 66.7148C105.955 67.2526 106.625 67.5215 107.495 67.5215C107.919 67.5215 108.29 67.4919 108.609 67.4326C108.933 67.3734 109.341 67.2458 109.833 67.0498V67.665C109.414 67.8473 109.026 67.9704 108.671 68.0342C108.315 68.1025 107.924 68.1367 107.495 68.1367ZM107.297 61.0273C106.581 61.0273 106.007 61.2643 105.574 61.7383C105.141 62.2077 104.888 62.8867 104.815 63.7754H109.409C109.409 62.9141 109.222 62.2419 108.849 61.7588C108.475 61.2712 107.958 61.0273 107.297 61.0273ZM117.975 60.5693V61.041L116.437 61.1367C116.847 61.6471 117.052 62.2077 117.052 62.8184C117.052 63.5339 116.812 64.1149 116.334 64.5615C115.86 65.0036 115.222 65.2246 114.42 65.2246C114.083 65.2246 113.846 65.2109 113.709 65.1836C113.44 65.3249 113.235 65.4912 113.094 65.6826C112.952 65.874 112.882 66.0768 112.882 66.291C112.882 66.528 112.971 66.7012 113.148 66.8105C113.331 66.9199 113.634 66.9746 114.058 66.9746H115.356C116.163 66.9746 116.781 67.1387 117.209 67.4668C117.637 67.7904 117.852 68.2712 117.852 68.9092C117.852 69.693 117.533 70.2969 116.895 70.7207C116.261 71.1491 115.356 71.3633 114.181 71.3633C113.246 71.3633 112.522 71.1833 112.007 70.8232C111.496 70.4632 111.241 69.9619 111.241 69.3193C111.241 68.8089 111.398 68.3851 111.713 68.0479C112.032 67.7106 112.463 67.4805 113.005 67.3574C112.782 67.2617 112.602 67.1273 112.465 66.9541C112.333 66.7764 112.267 66.5736 112.267 66.3457C112.267 65.849 112.583 65.4115 113.217 65.0332C112.784 64.8555 112.447 64.5775 112.205 64.1992C111.964 63.8164 111.843 63.3789 111.843 62.8867C111.843 62.1439 112.077 61.5492 112.547 61.1025C113.021 60.6514 113.659 60.4258 114.461 60.4258C114.949 60.4258 115.327 60.4736 115.596 60.5693H117.975ZM111.959 69.2578C111.959 70.2786 112.718 70.7891 114.235 70.7891C116.186 70.7891 117.161 70.167 117.161 68.9229C117.161 68.4762 117.008 68.1527 116.703 67.9521C116.398 67.7516 115.903 67.6514 115.22 67.6514H114.003C112.64 67.6514 111.959 68.1868 111.959 69.2578ZM112.526 62.8867C112.526 63.4609 112.7 63.9076 113.046 64.2266C113.397 64.541 113.864 64.6982 114.447 64.6982C115.067 64.6982 115.541 64.541 115.869 64.2266C116.202 63.9121 116.368 63.4564 116.368 62.8594C116.368 62.2259 116.197 61.752 115.855 61.4375C115.518 61.1185 115.044 60.959 114.434 60.959C113.841 60.959 113.374 61.1299 113.032 61.4717C112.695 61.8089 112.526 62.2806 112.526 62.8867ZM124.018 68L123.847 66.8242H123.792C123.418 67.3027 123.033 67.6423 122.637 67.8428C122.245 68.0387 121.78 68.1367 121.242 68.1367C120.513 68.1367 119.946 67.9499 119.54 67.5762C119.134 67.2025 118.932 66.6852 118.932 66.0244C118.932 65.2998 119.232 64.737 119.834 64.3359C120.44 63.9349 121.315 63.723 122.459 63.7002L123.874 63.6592V63.167C123.874 62.4606 123.73 61.9274 123.443 61.5674C123.156 61.2074 122.694 61.0273 122.056 61.0273C121.368 61.0273 120.654 61.2188 119.916 61.6016L119.663 61.0137C120.479 60.6309 121.285 60.4395 122.083 60.4395C122.899 60.4395 123.507 60.6514 123.908 61.0752C124.314 61.499 124.517 62.1598 124.517 63.0576V68H124.018ZM121.283 67.5215C122.076 67.5215 122.701 67.2959 123.156 66.8447C123.617 66.389 123.847 65.7578 123.847 64.9512V64.2197L122.548 64.2744C121.504 64.3245 120.759 64.4886 120.312 64.7666C119.87 65.04 119.649 65.4684 119.649 66.0518C119.649 66.5166 119.791 66.8789 120.073 67.1387C120.36 67.3939 120.764 67.5215 121.283 67.5215ZM130.108 68.1367C128.965 68.1367 128.131 67.7083 127.606 66.8516H127.559L127.579 67.4258C127.597 67.763 127.606 68.1322 127.606 68.5332V71.3633H126.93V60.5693H127.504L127.634 61.6289H127.675C128.185 60.8268 129.001 60.4258 130.122 60.4258C131.125 60.4258 131.888 60.7562 132.412 61.417C132.941 62.0732 133.205 63.0303 133.205 64.2881C133.205 65.5094 132.927 66.4574 132.371 67.1318C131.82 67.8018 131.065 68.1367 130.108 68.1367ZM130.095 67.5352C130.856 67.5352 131.444 67.2526 131.858 66.6875C132.278 66.1224 132.487 65.3317 132.487 64.3154C132.487 62.1325 131.699 61.041 130.122 61.041C129.256 61.041 128.62 61.2803 128.215 61.7588C127.809 62.2327 127.606 63.0075 127.606 64.083V64.3018C127.606 65.4639 127.8 66.2933 128.188 66.79C128.579 67.2868 129.215 67.5352 130.095 67.5352ZM135.946 68H135.27V60.5693H135.946V68ZM135.174 58.5049C135.174 58.0674 135.317 57.8486 135.604 57.8486C135.746 57.8486 135.855 57.9056 135.933 58.0195C136.015 58.1335 136.056 58.2952 136.056 58.5049C136.056 58.71 136.015 58.8717 135.933 58.9902C135.855 59.1087 135.746 59.168 135.604 59.168C135.317 59.168 135.174 58.9469 135.174 58.5049ZM141.367 60.4258C141.682 60.4258 142.019 60.4577 142.379 60.5215L142.249 61.1709C141.939 61.0934 141.618 61.0547 141.285 61.0547C140.652 61.0547 140.132 61.3236 139.727 61.8613C139.321 62.3991 139.118 63.0781 139.118 63.8984V68H138.441V60.5693H139.016L139.084 61.9092H139.132C139.437 61.3623 139.763 60.9795 140.109 60.7607C140.456 60.5374 140.875 60.4258 141.367 60.4258ZM5.81055 87L2.08496 77.7715H2.03027C2.06673 78.3366 2.08496 78.9154 2.08496 79.5078V87H1.41504V77.0059H2.49512L6.03613 85.7969H6.07715L9.61816 77.0059H10.6709V87H9.9668V79.4258C9.9668 78.8971 9.99414 78.3503 10.0488 77.7852H9.99414L6.25488 87H5.81055ZM18.3135 83.4727H14.2529L12.8584 87H12.0859L16.1055 76.9648H16.5498L20.4873 87H19.7012L18.3135 83.4727ZM14.5059 82.8438H18.0811L16.7207 79.2412C16.6068 78.9587 16.4701 78.5667 16.3105 78.0654C16.1875 78.5029 16.0531 78.8994 15.9072 79.2549L14.5059 82.8438ZM26.3047 87L22.5791 77.7715H22.5244C22.5609 78.3366 22.5791 78.9154 22.5791 79.5078V87H21.9092V77.0059H22.9893L26.5303 85.7969H26.5713L30.1123 77.0059H31.165V87H30.4609V79.4258C30.4609 78.8971 30.4883 78.3503 30.543 77.7852H30.4883L26.749 87H26.3047ZM38.8076 83.4727H34.7471L33.3525 87H32.5801L36.5996 76.9648H37.0439L40.9814 87H40.1953L38.8076 83.4727ZM35 82.8438H38.5752L37.2148 79.2412C37.1009 78.9587 36.9642 78.5667 36.8047 78.0654C36.6816 78.5029 36.5472 78.8994 36.4014 79.2549L35 82.8438ZM4.21094 106.137C3.14909 106.137 2.31738 105.802 1.71582 105.132C1.11426 104.462 0.813477 103.528 0.813477 102.329C0.813477 101.099 1.12565 100.142 1.75 99.458C2.37435 98.7699 3.22884 98.4258 4.31348 98.4258C4.95605 98.4258 5.57129 98.5374 6.15918 98.7607L5.97461 99.3623C5.33203 99.1481 4.77376 99.041 4.2998 99.041C3.38835 99.041 2.69792 99.3236 2.22852 99.8887C1.75911 100.449 1.52441 101.258 1.52441 102.315C1.52441 103.318 1.75911 104.104 2.22852 104.674C2.69792 105.239 3.35417 105.521 4.19727 105.521C4.87174 105.521 5.49837 105.401 6.07715 105.159V105.788C5.60319 106.021 4.98112 106.137 4.21094 106.137ZM12.6191 99.1572H10.1445V106H9.47461V99.1572H6.93848V98.5693H12.6191V99.1572ZM14.793 98.5693V103.942L14.752 105.344L19.1611 98.5693H20.0635V106H19.4141V100.661L19.4414 99.2256L15.0322 106H14.1504V98.5693H14.793ZM27.6992 106H27.0293V99.1982H24.3975C24.2607 100.998 24.0921 102.372 23.8916 103.32C23.6956 104.264 23.4404 104.959 23.126 105.405C22.8161 105.847 22.4128 106.068 21.916 106.068C21.7383 106.068 21.5833 106.05 21.4512 106.014V105.398C21.5378 105.426 21.6608 105.439 21.8203 105.439C22.3353 105.439 22.75 104.897 23.0645 103.812C23.3835 102.723 23.625 100.976 23.7891 98.5693H27.6992V106ZM30.8643 101.7H33.4824C35.2279 101.7 36.1006 102.386 36.1006 103.758C36.1006 104.464 35.8568 105.016 35.3691 105.412C34.8815 105.804 34.182 106 33.2705 106H30.1875V98.5693H30.8643V101.7ZM30.8643 102.343V105.357H33.3799C34.027 105.357 34.5215 105.221 34.8633 104.947C35.2096 104.674 35.3828 104.273 35.3828 103.744C35.3828 103.252 35.2301 102.896 34.9248 102.678C34.6195 102.454 34.0908 102.343 33.3389 102.343H30.8643ZM42.5674 104.373L42.6494 104.517C42.3076 105.724 41.9111 106.82 41.46 107.805H41.0156C41.3665 106.551 41.6172 105.408 41.7676 104.373H42.5674ZM48.2617 105.275L48.6855 104.079L50.8252 98.5693H51.7617V106H51.1191V99.3896C51.0189 99.6768 50.9118 99.9707 50.7979 100.271C50.6885 100.572 49.9456 102.482 48.5693 106H47.9678L45.9102 100.777C45.8236 100.568 45.7415 100.347 45.6641 100.114C45.5911 99.8818 45.5091 99.6312 45.418 99.3623V106H44.8027V98.5693H45.6982L47.8447 104.038C48.0133 104.48 48.1523 104.893 48.2617 105.275ZM60.3955 102.274C60.3955 103.487 60.1016 104.435 59.5137 105.118C58.9258 105.797 58.1146 106.137 57.0801 106.137C56.4284 106.137 55.8542 105.979 55.3574 105.665C54.8607 105.351 54.4801 104.899 54.2158 104.312C53.9515 103.724 53.8193 103.045 53.8193 102.274C53.8193 101.062 54.1133 100.119 54.7012 99.4443C55.2891 98.7653 56.0957 98.4258 57.1211 98.4258C58.1419 98.4258 58.9417 98.7699 59.5205 99.458C60.1038 100.142 60.3955 101.08 60.3955 102.274ZM54.5303 102.274C54.5303 103.295 54.7536 104.093 55.2002 104.667C55.6514 105.237 56.2871 105.521 57.1074 105.521C57.9277 105.521 58.5612 105.237 59.0078 104.667C59.459 104.093 59.6846 103.295 59.6846 102.274C59.6846 101.249 59.4567 100.454 59.001 99.8887C58.5498 99.3236 57.9141 99.041 57.0938 99.041C56.2734 99.041 55.64 99.3236 55.1934 99.8887C54.7513 100.449 54.5303 101.244 54.5303 102.274ZM68.5166 108.522H67.8467V106H62.1592V108.522H61.4893V105.357H61.9814C62.6012 104.487 63.0798 103.478 63.417 102.329C63.7542 101.181 63.932 99.9274 63.9502 98.5693H67.5254V105.357H68.5166V108.522ZM66.8486 105.357V99.1982H64.5381C64.4287 101.664 63.8317 103.717 62.7471 105.357H66.8486ZM74.6074 106L74.4365 104.824H74.3818C74.0081 105.303 73.623 105.642 73.2266 105.843C72.8346 106.039 72.3698 106.137 71.832 106.137C71.1029 106.137 70.5355 105.95 70.1299 105.576C69.7243 105.202 69.5215 104.685 69.5215 104.024C69.5215 103.3 69.8223 102.737 70.4238 102.336C71.0299 101.935 71.9049 101.723 73.0488 101.7L74.4639 101.659V101.167C74.4639 100.461 74.3203 99.9274 74.0332 99.5674C73.7461 99.2074 73.2835 99.0273 72.6455 99.0273C71.9574 99.0273 71.2441 99.2188 70.5059 99.6016L70.2529 99.0137C71.0687 98.6309 71.8753 98.4395 72.6729 98.4395C73.4886 98.4395 74.097 98.6514 74.498 99.0752C74.9036 99.499 75.1064 100.16 75.1064 101.058V106H74.6074ZM71.873 105.521C72.666 105.521 73.2904 105.296 73.7461 104.845C74.2064 104.389 74.4365 103.758 74.4365 102.951V102.22L73.1377 102.274C72.0941 102.325 71.349 102.489 70.9023 102.767C70.4603 103.04 70.2393 103.468 70.2393 104.052C70.2393 104.517 70.3805 104.879 70.6631 105.139C70.9502 105.394 71.3535 105.521 71.873 105.521ZM81.9287 104.373L82.0107 104.517C81.6689 105.724 81.2725 106.82 80.8213 107.805H80.377C80.7279 106.551 80.9785 105.408 81.1289 104.373H81.9287ZM87.165 106.137C86.085 106.137 85.2419 105.804 84.6357 105.139C84.0342 104.473 83.7334 103.541 83.7334 102.343C83.7334 101.158 84.0251 100.21 84.6084 99.499C85.1917 98.7835 85.9779 98.4258 86.9668 98.4258C87.8418 98.4258 88.5322 98.7311 89.0381 99.3418C89.5439 99.9525 89.7969 100.782 89.7969 101.83V102.377H84.4443C84.4535 103.398 84.6904 104.177 85.1553 104.715C85.6247 105.253 86.2946 105.521 87.165 105.521C87.5889 105.521 87.9603 105.492 88.2793 105.433C88.6029 105.373 89.0107 105.246 89.5029 105.05V105.665C89.0837 105.847 88.6963 105.97 88.3408 106.034C87.9854 106.103 87.5934 106.137 87.165 106.137ZM86.9668 99.0273C86.2513 99.0273 85.6771 99.2643 85.2441 99.7383C84.8112 100.208 84.5583 100.887 84.4854 101.775H89.0791C89.0791 100.914 88.8923 100.242 88.5186 99.7588C88.1449 99.2712 87.6276 99.0273 86.9668 99.0273ZM97.9111 108.522H97.2412V106H91.5537V108.522H90.8838V105.357H91.376C91.9958 104.487 92.4743 103.478 92.8115 102.329C93.1488 101.181 93.3265 99.9274 93.3447 98.5693H96.9199V105.357H97.9111V108.522ZM96.2432 105.357V99.1982H93.9326C93.8232 101.664 93.2262 103.717 92.1416 105.357H96.2432ZM104.002 106L103.831 104.824H103.776C103.403 105.303 103.018 105.642 102.621 105.843C102.229 106.039 101.764 106.137 101.227 106.137C100.497 106.137 99.93 105.95 99.5244 105.576C99.1188 105.202 98.916 104.685 98.916 104.024C98.916 103.3 99.2168 102.737 99.8184 102.336C100.424 101.935 101.299 101.723 102.443 101.7L103.858 101.659V101.167C103.858 100.461 103.715 99.9274 103.428 99.5674C103.141 99.2074 102.678 99.0273 102.04 99.0273C101.352 99.0273 100.639 99.2188 99.9004 99.6016L99.6475 99.0137C100.463 98.6309 101.27 98.4395 102.067 98.4395C102.883 98.4395 103.492 98.6514 103.893 99.0752C104.298 99.499 104.501 100.16 104.501 101.058V106H104.002ZM101.268 105.521C102.061 105.521 102.685 105.296 103.141 104.845C103.601 104.389 103.831 103.758 103.831 102.951V102.22L102.532 102.274C101.489 102.325 100.743 102.489 100.297 102.767C99.8548 103.04 99.6338 103.468 99.6338 104.052C99.6338 104.517 99.7751 104.879 100.058 105.139C100.345 105.394 100.748 105.521 101.268 105.521ZM111.323 104.373L111.405 104.517C111.063 105.724 110.667 106.82 110.216 107.805H109.771C110.122 106.551 110.373 105.408 110.523 104.373H111.323ZM114.235 106H113.559V98.5693H119.485V106H118.809V99.2119H114.235V106ZM120.736 98.5693H121.434L123.006 102.739C123.484 104.02 123.787 104.883 123.915 105.33H123.956C124.147 104.742 124.46 103.865 124.893 102.698L126.465 98.5693H127.162L123.833 107.203C123.564 107.905 123.339 108.379 123.156 108.625C122.974 108.871 122.76 109.056 122.514 109.179C122.272 109.302 121.978 109.363 121.632 109.363C121.372 109.363 121.083 109.315 120.764 109.22V108.632C121.028 108.705 121.313 108.741 121.618 108.741C121.851 108.741 122.056 108.687 122.233 108.577C122.411 108.468 122.571 108.297 122.712 108.064C122.858 107.837 123.024 107.472 123.211 106.971C123.402 106.474 123.525 106.15 123.58 106L120.736 98.5693ZM133.123 99.1572H130.648V106H129.979V99.1572H127.442V98.5693H133.123V99.1572ZM137.655 106.137C136.575 106.137 135.732 105.804 135.126 105.139C134.524 104.473 134.224 103.541 134.224 102.343C134.224 101.158 134.515 100.21 135.099 99.499C135.682 98.7835 136.468 98.4258 137.457 98.4258C138.332 98.4258 139.022 98.7311 139.528 99.3418C140.034 99.9525 140.287 100.782 140.287 101.83V102.377H134.935C134.944 103.398 135.181 104.177 135.646 104.715C136.115 105.253 136.785 105.521 137.655 105.521C138.079 105.521 138.451 105.492 138.77 105.433C139.093 105.373 139.501 105.246 139.993 105.05V105.665C139.574 105.847 139.187 105.97 138.831 106.034C138.476 106.103 138.084 106.137 137.655 106.137ZM137.457 99.0273C136.742 99.0273 136.167 99.2643 135.734 99.7383C135.301 100.208 135.049 100.887 134.976 101.775H139.569C139.569 100.914 139.382 100.242 139.009 99.7588C138.635 99.2712 138.118 99.0273 137.457 99.0273ZM147.396 105.357H151.102V98.5693H151.778V106H142.338V98.5693H143.015V105.357H146.72V98.5693H147.396V105.357ZM157.274 106.137C156.194 106.137 155.351 105.804 154.745 105.139C154.144 104.473 153.843 103.541 153.843 102.343C153.843 101.158 154.134 100.21 154.718 99.499C155.301 98.7835 156.087 98.4258 157.076 98.4258C157.951 98.4258 158.642 98.7311 159.147 99.3418C159.653 99.9525 159.906 100.782 159.906 101.83V102.377H154.554C154.563 103.398 154.8 104.177 155.265 104.715C155.734 105.253 156.404 105.521 157.274 105.521C157.698 105.521 158.07 105.492 158.389 105.433C158.712 105.373 159.12 105.246 159.612 105.05V105.665C159.193 105.847 158.806 105.97 158.45 106.034C158.095 106.103 157.703 106.137 157.274 106.137ZM157.076 99.0273C156.361 99.0273 155.786 99.2643 155.354 99.7383C154.921 100.208 154.668 100.887 154.595 101.775H159.188C159.188 100.914 159.002 100.242 158.628 99.7588C158.254 99.2712 157.737 99.0273 157.076 99.0273ZM164.924 106.137C163.862 106.137 163.03 105.802 162.429 105.132C161.827 104.462 161.526 103.528 161.526 102.329C161.526 101.099 161.839 100.142 162.463 99.458C163.087 98.7699 163.942 98.4258 165.026 98.4258C165.669 98.4258 166.284 98.5374 166.872 98.7607L166.688 99.3623C166.045 99.1481 165.487 99.041 165.013 99.041C164.101 99.041 163.411 99.3236 162.941 99.8887C162.472 100.449 162.237 101.258 162.237 102.315C162.237 103.318 162.472 104.104 162.941 104.674C163.411 105.239 164.067 105.521 164.91 105.521C165.585 105.521 166.211 105.401 166.79 105.159V105.788C166.316 106.021 165.694 106.137 164.924 106.137ZM173.332 99.1572H170.857V106H170.188V99.1572H167.651V98.5693H173.332V99.1572ZM180.564 100.36C180.564 100.83 180.448 101.199 180.216 101.468C179.983 101.732 179.605 101.917 179.081 102.021V102.069C179.678 102.138 180.109 102.311 180.373 102.589C180.642 102.862 180.776 103.257 180.776 103.771C180.776 104.487 180.539 105.038 180.065 105.426C179.596 105.809 178.908 106 178.001 106H174.863V98.5693H178.015C178.862 98.5693 179.498 98.722 179.922 99.0273C180.35 99.3327 180.564 99.777 180.564 100.36ZM180.059 103.758C180.059 102.846 179.359 102.391 177.96 102.391H175.54V105.357H178.056C179.391 105.357 180.059 104.824 180.059 103.758ZM179.847 100.415C179.847 99.9821 179.692 99.6745 179.382 99.4922C179.072 99.3053 178.607 99.2119 177.987 99.2119H175.54V101.755H177.905C178.598 101.755 179.095 101.648 179.396 101.434C179.696 101.219 179.847 100.88 179.847 100.415ZM183.436 98.5693V103.942L183.395 105.344L187.804 98.5693H188.706V106H188.057V100.661L188.084 99.2256L183.675 106H182.793V98.5693H183.436ZM191.092 106H190.237L192.479 102.794C191.796 102.666 191.301 102.429 190.996 102.083C190.695 101.737 190.545 101.292 190.545 100.75C190.545 100.076 190.771 99.5446 191.222 99.1572C191.677 98.7653 192.288 98.5693 193.054 98.5693H196.116V106H195.446V102.876H193.177L191.092 106ZM191.256 100.723C191.256 101.233 191.42 101.614 191.748 101.864C192.081 102.11 192.58 102.233 193.245 102.233H195.446V99.2119H193.04C192.475 99.2119 192.035 99.3418 191.721 99.6016C191.411 99.8568 191.256 100.23 191.256 100.723Z" fill="#88A9D3"/>
</svg>
