<svg width="118" height="59" viewBox="0 0 118 59" fill="none" xmlns="http://www.w3.org/2000/svg">
<path d="M48.9434 0.404V24H46.3254V12.712H44.8294L42.2454 24H39.5594L42.1774 12.542C41.5201 12.338 40.9761 11.964 40.5454 11.42C40.1147 10.876 39.8994 10.094 39.8994 9.074V4.042C39.8994 3.54333 39.9674 3.07867 40.1034 2.648C40.2394 2.19467 40.4434 1.80933 40.7154 1.492C41.0101 1.152 41.3841 0.891332 41.8374 0.709998C42.3134 0.505999 42.8801 0.404 43.5374 0.404H48.9434ZM46.3254 3.022H43.5374C43.1521 3.022 42.8801 3.124 42.7214 3.328C42.5854 3.532 42.5174 3.77 42.5174 4.042V9.074C42.5174 9.43667 42.6194 9.69733 42.8234 9.856C43.0274 10.0147 43.2654 10.094 43.5374 10.094H46.3254V3.022ZM60.3759 7.918V0.404H62.9939V24H60.3759V10.536H56.3299V24H53.7119V0.404H56.3299V7.918H60.3759ZM75.456 24L74.946 19.478H70.288L69.744 24H67.126L69.812 0.404H75.388L78.108 24H75.456ZM70.56 17.098H74.674L73.042 3.022H72.158L70.56 17.098ZM9.23088 34.404V58H6.61288V37.022H2.87288V58H0.254883V34.404H9.23088ZM22.705 46.882C22.705 47.5393 22.603 48.106 22.399 48.582C22.2176 49.0353 21.957 49.4093 21.617 49.704C21.277 49.976 20.8803 50.18 20.427 50.316C19.9963 50.452 19.5316 50.52 19.033 50.52H16.619V58H14.001V34.404H19.033C19.6903 34.404 20.2456 34.506 20.699 34.71C21.175 34.8913 21.5603 35.152 21.855 35.492C22.1496 35.8093 22.365 36.1947 22.501 36.648C22.637 37.0787 22.705 37.5433 22.705 38.042V46.882ZM20.053 38.042C20.053 37.77 19.9736 37.532 19.815 37.328C19.679 37.124 19.4183 37.022 19.033 37.022H16.619V47.902H19.033C19.3276 47.902 19.5656 47.834 19.747 47.698C19.951 47.5393 20.053 47.2673 20.053 46.882V38.042ZM32.4946 34.2C33.1519 34.2 33.7073 34.302 34.1606 34.506C34.6366 34.6873 35.0106 34.948 35.2826 35.288C35.5773 35.6053 35.7926 35.9907 35.9286 36.444C36.0646 36.8747 36.1326 37.3393 36.1326 37.838V54.566C36.1326 55.0647 36.0646 55.5407 35.9286 55.994C35.7926 56.4247 35.5773 56.81 35.2826 57.15C35.0106 57.4673 34.6366 57.728 34.1606 57.932C33.7073 58.1133 33.1519 58.204 32.4946 58.204H30.4886C29.8313 58.204 29.2646 58.1133 28.7886 57.932C28.3353 57.728 27.9613 57.4673 27.6666 57.15C27.3946 56.81 27.1906 56.4247 27.0546 55.994C26.9186 55.5407 26.8506 55.0647 26.8506 54.566V37.838C26.8506 37.3393 26.9186 36.8747 27.0546 36.444C27.1906 35.9907 27.3946 35.6053 27.6666 35.288C27.9613 34.948 28.3353 34.6873 28.7886 34.506C29.2646 34.302 29.8313 34.2 30.4886 34.2H32.4946ZM32.4946 55.586C32.8573 55.586 33.1179 55.484 33.2766 55.28C33.4353 55.076 33.5146 54.838 33.5146 54.566V37.838C33.5146 37.566 33.4353 37.328 33.2766 37.124C33.1179 36.92 32.8573 36.818 32.4946 36.818H30.4886C30.1033 36.818 29.8313 36.92 29.6726 37.124C29.5366 37.328 29.4686 37.566 29.4686 37.838V54.566C29.4686 54.838 29.5366 55.076 29.6726 55.28C29.8313 55.484 30.1033 55.586 30.4886 55.586H32.4946ZM49.9119 40.49L46.9539 43.244L49.9119 46.066V58H47.2939V47.154L45.2539 44.978L43.2479 47.086V58H40.6299V45.998L43.5199 43.244L40.6299 40.49V34.404H43.2479V39.402L45.2539 41.51L47.2939 39.334V34.404H49.9119V40.49ZM59.8872 34.2C60.5445 34.2 61.0998 34.302 61.5532 34.506C62.0292 34.6873 62.4032 34.948 62.6752 35.288C62.9698 35.6053 63.1852 35.9907 63.3212 36.444C63.4572 36.8747 63.5252 37.3393 63.5252 37.838V54.566C63.5252 55.0647 63.4572 55.5407 63.3212 55.994C63.1852 56.4247 62.9698 56.81 62.6752 57.15C62.4032 57.4673 62.0292 57.728 61.5532 57.932C61.0998 58.1133 60.5445 58.204 59.8872 58.204H57.8812C57.2238 58.204 56.6572 58.1133 56.1812 57.932C55.7278 57.728 55.3538 57.4673 55.0592 57.15C54.7872 56.81 54.5832 56.4247 54.4472 55.994C54.3112 55.5407 54.2432 55.0647 54.2432 54.566V37.838C54.2432 37.3393 54.3112 36.8747 54.4472 36.444C54.5832 35.9907 54.7872 35.6053 55.0592 35.288C55.3538 34.948 55.7278 34.6873 56.1812 34.506C56.6572 34.302 57.2238 34.2 57.8812 34.2H59.8872ZM59.8872 55.586C60.2498 55.586 60.5105 55.484 60.6692 55.28C60.8278 55.076 60.9072 54.838 60.9072 54.566V37.838C60.9072 37.566 60.8278 37.328 60.6692 37.124C60.5105 36.92 60.2498 36.818 59.8872 36.818H57.8812C57.4958 36.818 57.2238 36.92 57.0652 37.124C56.9292 37.328 56.8612 37.566 56.8612 37.838V54.566C56.8612 54.838 56.9292 55.076 57.0652 55.28C57.2238 55.484 57.4958 55.586 57.8812 55.586H59.8872ZM76.7265 46.882C76.7265 47.5393 76.6245 48.106 76.4205 48.582C76.2391 49.0353 75.9785 49.4093 75.6385 49.704C75.2985 49.976 74.9018 50.18 74.4485 50.316C74.0178 50.452 73.5531 50.52 73.0545 50.52H70.6405V58H68.0225V34.404H73.0545C73.7118 34.404 74.2671 34.506 74.7205 34.71C75.1965 34.8913 75.5818 35.152 75.8765 35.492C76.1711 35.8093 76.3865 36.1947 76.5225 36.648C76.6585 37.0787 76.7265 37.5433 76.7265 38.042V46.882ZM74.0745 38.042C74.0745 37.77 73.9951 37.532 73.8365 37.328C73.7005 37.124 73.4398 37.022 73.0545 37.022H70.6405V47.902H73.0545C73.3491 47.902 73.5871 47.834 73.7685 47.698C73.9725 47.5393 74.0745 47.2673 74.0745 46.882V38.042ZM86.5161 34.2C87.1734 34.2 87.7287 34.302 88.1821 34.506C88.6581 34.6873 89.0321 34.948 89.3041 35.288C89.5987 35.6053 89.8141 35.9907 89.9501 36.444C90.0861 36.8747 90.1541 37.3393 90.1541 37.838V54.566C90.1541 55.0647 90.0861 55.5407 89.9501 55.994C89.8141 56.4247 89.5987 56.81 89.3041 57.15C89.0321 57.4673 88.6581 57.728 88.1821 57.932C87.7287 58.1133 87.1734 58.204 86.5161 58.204H84.5101C83.8527 58.204 83.2861 58.1133 82.8101 57.932C82.3567 57.728 81.9827 57.4673 81.6881 57.15C81.4161 56.81 81.2121 56.4247 81.0761 55.994C80.9401 55.5407 80.8721 55.0647 80.8721 54.566V37.838C80.8721 37.3393 80.9401 36.8747 81.0761 36.444C81.2121 35.9907 81.4161 35.6053 81.6881 35.288C81.9827 34.948 82.3567 34.6873 82.8101 34.506C83.2861 34.302 83.8527 34.2 84.5101 34.2H86.5161ZM86.5161 55.586C86.8787 55.586 87.1394 55.484 87.2981 55.28C87.4567 55.076 87.5361 54.838 87.5361 54.566V37.838C87.5361 37.566 87.4567 37.328 87.2981 37.124C87.1394 36.92 86.8787 36.818 86.5161 36.818H84.5101C84.1247 36.818 83.8527 36.92 83.6941 37.124C83.5581 37.328 83.4901 37.566 83.4901 37.838V54.566C83.4901 54.838 83.5581 55.076 83.6941 55.28C83.8527 55.484 84.1247 55.586 84.5101 55.586H86.5161ZM99.7174 34.404C100.375 34.404 100.93 34.506 101.383 34.71C101.859 34.8913 102.233 35.152 102.505 35.492C102.8 35.8093 103.015 36.1947 103.151 36.648C103.287 37.0787 103.355 37.5433 103.355 38.042V39.708C103.355 40.7733 103.163 41.578 102.777 42.122C102.415 42.6433 101.927 43.006 101.315 43.21C101.927 43.4367 102.415 43.822 102.777 44.366C103.163 44.8873 103.355 45.6807 103.355 46.746V54.362C103.355 55.0193 103.253 55.586 103.049 56.062C102.868 56.5153 102.607 56.8893 102.267 57.184C101.95 57.456 101.565 57.66 101.111 57.796C100.681 57.932 100.216 58 99.7174 58H94.6514V34.404H99.7174ZM100.737 46.406C100.737 45.8167 100.567 45.3633 100.227 45.046C99.91 44.706 99.5134 44.536 99.0374 44.536H97.2694V55.382H99.7174C100.012 55.382 100.25 55.314 100.431 55.178C100.635 55.0193 100.737 54.7473 100.737 54.362V46.406ZM100.737 38.042C100.737 37.77 100.658 37.532 100.499 37.328C100.363 37.124 100.103 37.022 99.7174 37.022H97.2694V41.918H99.0374C99.5134 41.918 99.91 41.7593 100.227 41.442C100.567 41.102 100.737 40.6373 100.737 40.048V38.042ZM115.101 58L114.591 53.478H109.933L109.389 58H106.771L109.457 34.404H115.033L117.753 58H115.101ZM110.205 51.098H114.319L112.687 37.022H111.803L110.205 51.098Z" fill="#88A9D3"/>
</svg>
