<svg width="164" height="46" viewBox="0 0 164 46" fill="none" xmlns="http://www.w3.org/2000/svg">
<path d="M1 6.96324V13.4931V36.2794C1 38.2107 1.85812 40.0421 3.34212 41.278C4.51098 42.2515 5.98402 42.7845 7.50516 42.7845H142.346C143.997 42.7845 145.62 43.218 147.051 44.0417C148.483 44.8653 150.105 45.2988 151.757 45.2988H157.037C158.081 45.2988 159.107 45.0249 160.011 44.5043C161.86 43.4404 163 41.4696 163 39.3363V10.5386C163 8.45266 161.975 6.49984 160.259 5.31462C159.198 4.58242 157.94 4.19026 156.652 4.19026H95.9278H21.696C19.9455 4.19026 18.2258 3.73078 16.7086 2.85777L16.315 2.63132C14.7978 1.7583 13.0781 1.29883 11.3276 1.29883H6.66441C5.67289 1.29883 4.69874 1.55909 3.83934 2.05361C2.08274 3.06437 1 4.9366 1 6.96324Z" fill="#316198" stroke="#294F93"/>
</svg>
