<svg width="342" height="53" viewBox="0 0 342 53" fill="none" xmlns="http://www.w3.org/2000/svg">
<path d="M1 11.4837V15.3434V40.737C1 44.9087 3.58971 48.6421 7.4971 50.1034L10.8743 51.3664C11.9946 51.7854 13.1811 52 14.3772 52H61.3571H304.798H323.365H331.5C337.023 52 341.5 47.5228 341.5 42V22.3333C341.5 20.1696 340.798 18.0643 339.5 16.3333L331 5.00004C329.111 2.48199 326.148 1.00004 323 1.00004L222.942 1H81.4762H61.3571L13.5196 1.00004C12.8869 1.00005 12.2557 1.06008 11.6344 1.17936L9.11477 1.66303C4.40485 2.56717 1 6.6878 1 11.4837Z" fill="#346FAA" fill-opacity="0.26" stroke="#88A9D3"/>
</svg>
