<svg width="410" height="896" viewBox="0 0 410 896" fill="none" xmlns="http://www.w3.org/2000/svg">
<path d="M1 26.2744V252.431V867.599C1 869.319 1.44374 871.01 2.28832 872.509L12.0955 889.91C13.8678 893.055 17.1974 895 20.8072 895H73.8571H367.714H385.174C388.295 895 391.238 893.542 393.129 891.059L406.955 872.907C408.282 871.166 409 869.037 409 866.848V25.8032C409 24.2325 408.63 22.6839 407.92 21.2829L400.419 6.48046C398.715 3.11914 395.267 1.00078 391.499 1.00076L268.906 1H98.1428H73.8571L20.5159 1.00072C17.063 1.00077 13.8545 2.7821 12.0286 5.71272L2.51254 20.9864C1.524 22.573 1 24.405 1 26.2744Z" stroke="#88A9D3"/>
</svg>
